<?xml version="1.0" encoding="utf-8"?>
<svg width="587" height="421" viewBox="0 0 587 421" xmlns="http://www.w3.org/2000/svg">
<rect id="frame" x="0" y="0" width="587" height="421" fill="none" stroke="none" stroke-width="0"/>

<!-- Association OWN3 -->
<g>
	<line x1="223" y1="51" x2="121" y2="51" stroke="#726f83" stroke-width="2"/>
	<text x="162" y="68" fill="#726f83" font-family="Verdana" font-size="12">0,N</text>
	<line x1="121" y1="143" x2="121" y2="51" stroke="#726f83" stroke-width="2"/>
	<text x="126" y="93" fill="#726f83" font-family="Verdana" font-size="12">0,N</text>
	<g>
		<path d="M130 26 a14 14 90 0 1 14 14 V51 h-46 V40 a14 14 90 0 1 14 -14" fill="#b2bba4" stroke="#b2bba4" stroke-width="0"/>
		<path d="M144 51 v11 a14 14 90 0 1 -14 14 H112 a14 14 90 0 1 -14 -14 V51 H46" fill="#ccd6ba" stroke="#ccd6ba" stroke-width="0"/>
		<rect x="98" y="26" width="46" height="50" fill="none" rx="14" stroke="#85956b" stroke-width="2"/>
		<line x1="98" y1="51" x2="144" y2="51" stroke="#85956b" stroke-width="1"/>
		<text x="106" y="43.75" fill="#27360c" font-family="Verdana" font-size="12">OWN</text>
	</g>
</g>

<!-- Association CONTAIN2 -->
<g>
	<line x1="223" y1="51" x2="327" y2="51" stroke="#726f83" stroke-width="2"/>
	<text x="262" y="68" fill="#726f83" font-family="Verdana" font-size="12">0,N</text>
	<line x1="449" y1="51" x2="327" y2="51" stroke="#726f83" stroke-width="2"/>
	<text x="391" y="43" fill="#726f83" font-family="Verdana" font-size="12">0,N</text>
	<g>
		<path d="M349 26 a14 14 90 0 1 14 14 V51 h-72 V40 a14 14 90 0 1 14 -14" fill="#b2bba4" stroke="#b2bba4" stroke-width="0"/>
		<path d="M363 51 v11 a14 14 90 0 1 -14 14 H305 a14 14 90 0 1 -14 -14 V51 H72" fill="#ccd6ba" stroke="#ccd6ba" stroke-width="0"/>
		<rect x="291" y="26" width="72" height="50" fill="none" rx="14" stroke="#85956b" stroke-width="2"/>
		<line x1="291" y1="51" x2="363" y2="51" stroke="#85956b" stroke-width="1"/>
		<text x="298" y="43.75" fill="#27360c" font-family="Verdana" font-size="12">CONTAIN</text>
	</g>
</g>

<!-- Association BELONG3 -->
<g>
	<line x1="449" y1="51" x2="545" y2="51" stroke="#726f83" stroke-width="2"/>
	<text x="485" y="68" fill="#726f83" font-family="Verdana" font-size="12">0,N</text>
	<line x1="545" y1="378" x2="545" y2="51" stroke="#726f83" stroke-width="2"/>
	<text x="550" y="336" fill="#726f83" font-family="Verdana" font-size="12">1,N</text>
	<g>
		<path d="M564 26 a14 14 90 0 1 14 14 V51 h-66 V40 a14 14 90 0 1 14 -14" fill="#b2bba4" stroke="#b2bba4" stroke-width="0"/>
		<path d="M578 51 v11 a14 14 90 0 1 -14 14 H526 a14 14 90 0 1 -14 -14 V51 H66" fill="#ccd6ba" stroke="#ccd6ba" stroke-width="0"/>
		<rect x="512" y="26" width="66" height="50" fill="none" rx="14" stroke="#85956b" stroke-width="2"/>
		<line x1="512" y1="51" x2="578" y2="51" stroke="#85956b" stroke-width="1"/>
		<text x="520" y="43.75" fill="#27360c" font-family="Verdana" font-size="12">BELONG</text>
	</g>
</g>

<!-- Association LIKE -->
<g>
	<line x1="121" y1="269" x2="31" y2="143" stroke="#726f83" stroke-width="2"/>
	<text x="78.43" y="202" fill="#726f83" font-family="Verdana" font-size="12">0,N</text>
	<line x1="121" y1="143" x2="31" y2="143" stroke="#726f83" stroke-width="2"/>
	<text x="58" y="160" fill="#726f83" font-family="Verdana" font-size="12">0,N</text>
	<g>
		<path d="M39 118 a14 14 90 0 1 14 14 V143 h-44 V132 a14 14 90 0 1 14 -14" fill="#b2bba4" stroke="#b2bba4" stroke-width="0"/>
		<path d="M53 143 v11 a14 14 90 0 1 -14 14 H23 a14 14 90 0 1 -14 -14 V143 H44" fill="#ccd6ba" stroke="#ccd6ba" stroke-width="0"/>
		<rect x="9" y="118" width="44" height="50" fill="none" rx="14" stroke="#85956b" stroke-width="2"/>
		<line x1="9" y1="143" x2="53" y2="143" stroke="#85956b" stroke-width="1"/>
		<text x="17" y="135.75" fill="#27360c" font-family="Verdana" font-size="12">LIKE</text>
	</g>
</g>

<!-- Association OWN2 -->
<g>
	<line x1="121" y1="269" x2="223" y2="143" stroke="#726f83" stroke-width="2"/>
	<text x="173" y="221.92" fill="#726f83" font-family="Verdana" font-size="12">0,N</text>
	<line x1="121" y1="143" x2="223" y2="143" stroke="#726f83" stroke-width="2"/>
	<text x="162" y="160" fill="#726f83" font-family="Verdana" font-size="12">0,N</text>
	<g>
		<path d="M232 118 a14 14 90 0 1 14 14 V143 h-46 V132 a14 14 90 0 1 14 -14" fill="#b2bba4" stroke="#b2bba4" stroke-width="0"/>
		<path d="M246 143 v11 a14 14 90 0 1 -14 14 H214 a14 14 90 0 1 -14 -14 V143 H46" fill="#ccd6ba" stroke="#ccd6ba" stroke-width="0"/>
		<rect x="200" y="118" width="46" height="50" fill="none" rx="14" stroke="#85956b" stroke-width="2"/>
		<line x1="200" y1="143" x2="246" y2="143" stroke="#85956b" stroke-width="1"/>
		<text x="208" y="135.75" fill="#27360c" font-family="Verdana" font-size="12">OWN</text>
	</g>
</g>

<!-- Association CONTAIN1 -->
<g>
	<line x1="121" y1="269" x2="327" y2="143" stroke="#726f83" stroke-width="2"/>
	<text x="173" y="252.52" fill="#726f83" font-family="Verdana" font-size="12">1,N</text>
	<line x1="449" y1="51" x2="327" y2="143" stroke="#726f83" stroke-width="2"/>
	<text x="391" y="72.06" fill="#726f83" font-family="Verdana" font-size="12">0,N</text>
	<g>
		<path d="M349 118 a14 14 90 0 1 14 14 V143 h-72 V132 a14 14 90 0 1 14 -14" fill="#b2bba4" stroke="#b2bba4" stroke-width="0"/>
		<path d="M363 143 v11 a14 14 90 0 1 -14 14 H305 a14 14 90 0 1 -14 -14 V143 H72" fill="#ccd6ba" stroke="#ccd6ba" stroke-width="0"/>
		<rect x="291" y="118" width="72" height="50" fill="none" rx="14" stroke="#85956b" stroke-width="2"/>
		<line x1="291" y1="143" x2="363" y2="143" stroke="#85956b" stroke-width="1"/>
		<text x="298" y="135.75" fill="#27360c" font-family="Verdana" font-size="12">CONTAIN</text>
	</g>
</g>

<!-- Association FEATURING ON -->
<g>
	<line x1="449" y1="51" x2="449" y2="143" stroke="#726f83" stroke-width="2"/>
	<text x="454" y="110" fill="#726f83" font-family="Verdana" font-size="12">0,N</text>
	<line x1="327" y1="269" x2="449" y2="143" stroke="#726f83" stroke-width="2"/>
	<text x="381" y="228.48" fill="#726f83" font-family="Verdana" font-size="12">0,N</text>
	<g>
		<path d="M489 118 a14 14 90 0 1 14 14 V143 h-108 V132 a14 14 90 0 1 14 -14" fill="#b2bba4" stroke="#b2bba4" stroke-width="0"/>
		<path d="M503 143 v11 a14 14 90 0 1 -14 14 H409 a14 14 90 0 1 -14 -14 V143 H108" fill="#ccd6ba" stroke="#ccd6ba" stroke-width="0"/>
		<rect x="395" y="118" width="108" height="50" fill="none" rx="14" stroke="#85956b" stroke-width="2"/>
		<line x1="395" y1="143" x2="503" y2="143" stroke="#85956b" stroke-width="1"/>
		<text x="402" y="135.75" fill="#27360c" font-family="Verdana" font-size="12">FEATURING ON</text>
	</g>
</g>

<!-- Association OWN -->
<g>
	<line x1="121" y1="269" x2="223" y2="269" stroke="#726f83" stroke-width="2"/>
	<text x="173" y="286" fill="#726f83" font-family="Verdana" font-size="12">0,N</text>
	<line x1="327" y1="269" x2="223" y2="269" stroke="#726f83" stroke-width="2"/>
	<text x="252" y="286" fill="#726f83" font-family="Verdana" font-size="12">1,1</text>
	<g>
		<path d="M232 244 a14 14 90 0 1 14 14 V269 h-46 V258 a14 14 90 0 1 14 -14" fill="#b2bba4" stroke="#b2bba4" stroke-width="0"/>
		<path d="M246 269 v11 a14 14 90 0 1 -14 14 H214 a14 14 90 0 1 -14 -14 V269 H46" fill="#ccd6ba" stroke="#ccd6ba" stroke-width="0"/>
		<rect x="200" y="244" width="46" height="50" fill="none" rx="14" stroke="#85956b" stroke-width="2"/>
		<line x1="200" y1="269" x2="246" y2="269" stroke="#85956b" stroke-width="1"/>
		<text x="208" y="261.75" fill="#27360c" font-family="Verdana" font-size="12">OWN</text>
	</g>
</g>

<!-- Association BELONG2 -->
<g>
	<line x1="327" y1="269" x2="449" y2="269" stroke="#726f83" stroke-width="2"/>
	<text x="381" y="286" fill="#726f83" font-family="Verdana" font-size="12">0,N</text>
	<line x1="545" y1="378" x2="449" y2="269" stroke="#726f83" stroke-width="2"/>
	<text x="491" y="357.91" fill="#726f83" font-family="Verdana" font-size="12">1,N</text>
	<g>
		<path d="M468 244 a14 14 90 0 1 14 14 V269 h-66 V258 a14 14 90 0 1 14 -14" fill="#b2bba4" stroke="#b2bba4" stroke-width="0"/>
		<path d="M482 269 v11 a14 14 90 0 1 -14 14 H430 a14 14 90 0 1 -14 -14 V269 H66" fill="#ccd6ba" stroke="#ccd6ba" stroke-width="0"/>
		<rect x="416" y="244" width="66" height="50" fill="none" rx="14" stroke="#85956b" stroke-width="2"/>
		<line x1="416" y1="269" x2="482" y2="269" stroke="#85956b" stroke-width="1"/>
		<text x="424" y="261.75" fill="#27360c" font-family="Verdana" font-size="12">BELONG</text>
	</g>
</g>

<!-- Association BELONG -->
<g>
	<line x1="121" y1="269" x2="223" y2="378" stroke="#726f83" stroke-width="2"/>
	<text x="173" y="317.96" fill="#726f83" font-family="Verdana" font-size="12">0,N</text>
	<line x1="545" y1="378" x2="223" y2="378" stroke="#726f83" stroke-width="2"/>
	<text x="491" y="395" fill="#726f83" font-family="Verdana" font-size="12">1,N</text>
	<g>
		<path d="M242 353 a14 14 90 0 1 14 14 V378 h-66 V367 a14 14 90 0 1 14 -14" fill="#b2bba4" stroke="#b2bba4" stroke-width="0"/>
		<path d="M256 378 v11 a14 14 90 0 1 -14 14 H204 a14 14 90 0 1 -14 -14 V378 H66" fill="#ccd6ba" stroke="#ccd6ba" stroke-width="0"/>
		<rect x="190" y="353" width="66" height="50" fill="none" rx="14" stroke="#85956b" stroke-width="2"/>
		<line x1="190" y1="378" x2="256" y2="378" stroke="#85956b" stroke-width="1"/>
		<text x="198" y="370.75" fill="#27360c" font-family="Verdana" font-size="12">BELONG</text>
	</g>
</g>

<!-- Entity PLAYLIST -->
<g>
	<g>
		<rect x="189" y="9" width="68" height="25" fill="#97b8ff" stroke="#97b8ff" stroke-width="0" opacity="1"/>
		<rect x="189" y="34" width="68" height="59" fill="#c0d4ff" stroke="#c0d4ff" stroke-width="0" opacity="1"/>
		<rect x="189" y="9" width="68" height="84" fill="none" stroke="#578dff" stroke-width="2" opacity="1"/>
		<line x1="189" y1="34" x2="257" y2="34" stroke="#578dff" stroke-width="1"/>
	</g>
	<text x="194" y="26.75" fill="#131114" font-family="Verdana" font-size="12">PLAYLIST</text>
	<text x="194" y="51.8" fill="#3e3c42" font-family="Verdana" font-size="12">id</text>
	<line x1="194" y1="54" x2="206" y2="54" stroke="#3e3c42" stroke-width="1"/>
	<text x="194" y="68.8" fill="#3e3c42" font-family="Verdana" font-size="12">name</text>
	<text x="194" y="85.8" fill="#3e3c42" font-family="Verdana" font-size="12">cover</text>
</g>

<!-- Entity SONG -->
<g>
	<g>
		<rect x="418" y="9" width="62" height="25" fill="#97b8ff" stroke="#97b8ff" stroke-width="0" opacity="1"/>
		<rect x="418" y="34" width="62" height="59" fill="#c0d4ff" stroke="#c0d4ff" stroke-width="0" opacity="1"/>
		<rect x="418" y="9" width="62" height="84" fill="none" stroke="#578dff" stroke-width="2" opacity="1"/>
		<line x1="418" y1="34" x2="480" y2="34" stroke="#578dff" stroke-width="1"/>
	</g>
	<text x="431" y="26.75" fill="#131114" font-family="Verdana" font-size="12">SONG</text>
	<text x="423" y="51.8" fill="#3e3c42" font-family="Verdana" font-size="12">id</text>
	<line x1="423" y1="54" x2="435" y2="54" stroke="#3e3c42" stroke-width="1"/>
	<text x="423" y="68.8" fill="#3e3c42" font-family="Verdana" font-size="12">name</text>
	<text x="423" y="85.8" fill="#3e3c42" font-family="Verdana" font-size="12">duration</text>
</g>

<!-- Entity USER -->
<g>
	<g>
		<rect x="85" y="101" width="72" height="25" fill="#97b8ff" stroke="#97b8ff" stroke-width="0" opacity="1"/>
		<rect x="85" y="126" width="72" height="59" fill="#c0d4ff" stroke="#c0d4ff" stroke-width="0" opacity="1"/>
		<rect x="85" y="101" width="72" height="84" fill="none" stroke="#578dff" stroke-width="2" opacity="1"/>
		<line x1="85" y1="126" x2="157" y2="126" stroke="#578dff" stroke-width="1"/>
	</g>
	<text x="104" y="118.75" fill="#131114" font-family="Verdana" font-size="12">USER</text>
	<text x="90" y="143.8" fill="#3e3c42" font-family="Verdana" font-size="12">id</text>
	<line x1="90" y1="146" x2="102" y2="146" stroke="#3e3c42" stroke-width="1"/>
	<text x="90" y="160.8" fill="#3e3c42" font-family="Verdana" font-size="12">username</text>
	<text x="90" y="177.8" fill="#3e3c42" font-family="Verdana" font-size="12">password</text>
</g>

<!-- Entity ALBUM -->
<g>
	<g>
		<rect x="74" y="210" width="94" height="25" fill="#97b8ff" stroke="#97b8ff" stroke-width="0" opacity="1"/>
		<rect x="74" y="235" width="94" height="93" fill="#c0d4ff" stroke="#c0d4ff" stroke-width="0" opacity="1"/>
		<rect x="74" y="210" width="94" height="118" fill="none" stroke="#578dff" stroke-width="2" opacity="1"/>
		<line x1="74" y1="235" x2="168" y2="235" stroke="#578dff" stroke-width="1"/>
	</g>
	<text x="100" y="227.75" fill="#131114" font-family="Verdana" font-size="12">ALBUM</text>
	<text x="79" y="252.8" fill="#3e3c42" font-family="Verdana" font-size="12">id</text>
	<line x1="79" y1="255" x2="91" y2="255" stroke="#3e3c42" stroke-width="1"/>
	<text x="79" y="269.8" fill="#3e3c42" font-family="Verdana" font-size="12">name</text>
	<text x="79" y="286.8" fill="#3e3c42" font-family="Verdana" font-size="12">cover</text>
	<text x="79" y="303.8" fill="#3e3c42" font-family="Verdana" font-size="12">type</text>
	<text x="79" y="320.8" fill="#3e3c42" font-family="Verdana" font-size="12">creation_date</text>
</g>

<!-- Entity ARTIST -->
<g>
	<g>
		<rect x="278" y="210" width="98" height="25" fill="#97b8ff" stroke="#97b8ff" stroke-width="0" opacity="1"/>
		<rect x="278" y="235" width="98" height="93" fill="#c0d4ff" stroke="#c0d4ff" stroke-width="0" opacity="1"/>
		<rect x="278" y="210" width="98" height="118" fill="none" stroke="#578dff" stroke-width="2" opacity="1"/>
		<line x1="278" y1="235" x2="376" y2="235" stroke="#578dff" stroke-width="1"/>
	</g>
	<text x="304" y="227.75" fill="#131114" font-family="Verdana" font-size="12">ARTIST</text>
	<text x="283" y="252.8" fill="#3e3c42" font-family="Verdana" font-size="12">id</text>
	<line x1="283" y1="255" x2="295" y2="255" stroke="#3e3c42" stroke-width="1"/>
	<text x="283" y="269.8" fill="#3e3c42" font-family="Verdana" font-size="12">name</text>
	<text x="283" y="286.8" fill="#3e3c42" font-family="Verdana" font-size="12">cover</text>
	<text x="283" y="303.8" fill="#3e3c42" font-family="Verdana" font-size="12">description</text>
	<text x="283" y="320.8" fill="#3e3c42" font-family="Verdana" font-size="12">origin_country</text>
</g>

<!-- Entity GENRE -->
<g>
	<g>
		<rect x="518" y="344" width="54" height="25" fill="#97b8ff" stroke="#97b8ff" stroke-width="0" opacity="1"/>
		<rect x="518" y="369" width="54" height="43" fill="#c0d4ff" stroke="#c0d4ff" stroke-width="0" opacity="1"/>
		<rect x="518" y="344" width="54" height="68" fill="none" stroke="#578dff" stroke-width="2" opacity="1"/>
		<line x1="518" y1="369" x2="572" y2="369" stroke="#578dff" stroke-width="1"/>
	</g>
	<text x="524" y="361.75" fill="#131114" font-family="Verdana" font-size="12">GENRE</text>
	<text x="523" y="386.8" fill="#3e3c42" font-family="Verdana" font-size="12">id</text>
	<line x1="523" y1="389" x2="535" y2="389" stroke="#3e3c42" stroke-width="1"/>
	<text x="523" y="403.8" fill="#3e3c42" font-family="Verdana" font-size="12">name</text>
</g>
</svg>