<?xml version="1.0" encoding="utf-8"?>
<svg width="504" height="446" viewBox="0 0 504 446" xmlns="http://www.w3.org/2000/svg">
<rect id="frame" x="0" y="0" width="504" height="446" fill="none" stroke="none" stroke-width="0"/>

<!-- Association STAR3 -->
<g>
	<line x1="348" y1="68" x2="243" y2="68" stroke="#726f83" stroke-width="2"/>
	<text x="272" y="85" fill="#726f83" font-family="Verdana" font-size="12">0,N</text>
	<line x1="144" y1="177" x2="243" y2="68" stroke="#726f83" stroke-width="2"/>
	<text x="185" y="147.77" fill="#726f83" font-family="Verdana" font-size="12">0,N</text>
	<g>
		<path d="M253 43 a14 14 90 0 1 14 14 V68 h-48 V57 a14 14 90 0 1 14 -14" fill="#b2bba4" stroke="#b2bba4" stroke-width="0"/>
		<path d="M267 68 v11 a14 14 90 0 1 -14 14 H233 a14 14 90 0 1 -14 -14 V68 H48" fill="#ccd6ba" stroke="#ccd6ba" stroke-width="0"/>
		<rect x="219" y="43" width="48" height="50" fill="none" rx="14" stroke="#85956b" stroke-width="2"/>
		<line x1="219" y1="68" x2="267" y2="68" stroke="#85956b" stroke-width="1"/>
		<text x="227" y="60.75" fill="#27360c" font-family="Verdana" font-size="12">STAR</text>
	</g>
</g>

<!-- Association BELONG2 -->
<g>
	<line x1="348" y1="68" x2="462" y2="68" stroke="#726f83" stroke-width="2"/>
	<text x="402" y="85" fill="#726f83" font-family="Verdana" font-size="12">0,N</text>
	<line x1="462" y1="177" x2="462" y2="68" stroke="#726f83" stroke-width="2"/>
	<text x="467" y="135" fill="#726f83" font-family="Verdana" font-size="12">1,N</text>
	<g>
		<path d="M481 43 a14 14 90 0 1 14 14 V68 h-66 V57 a14 14 90 0 1 14 -14" fill="#b2bba4" stroke="#b2bba4" stroke-width="0"/>
		<path d="M495 68 v11 a14 14 90 0 1 -14 14 H443 a14 14 90 0 1 -14 -14 V68 H66" fill="#ccd6ba" stroke="#ccd6ba" stroke-width="0"/>
		<rect x="429" y="43" width="66" height="50" fill="none" rx="14" stroke="#85956b" stroke-width="2"/>
		<line x1="429" y1="68" x2="495" y2="68" stroke="#85956b" stroke-width="1"/>
		<text x="437" y="60.75" fill="#27360c" font-family="Verdana" font-size="12">BELONG</text>
	</g>
</g>

<!-- Association OWN3 -->
<g>
	<line x1="45" y1="286" x2="45" y2="177" stroke="#726f83" stroke-width="2"/>
	<text x="50" y="236" fill="#726f83" font-family="Verdana" font-size="12">0,N</text>
	<line x1="144" y1="177" x2="45" y2="177" stroke="#726f83" stroke-width="2"/>
	<text x="81" y="194" fill="#726f83" font-family="Verdana" font-size="12">0,N</text>
	<g>
		<path d="M54 152 a14 14 90 0 1 14 14 V177 h-46 V166 a14 14 90 0 1 14 -14" fill="#b2bba4" stroke="#b2bba4" stroke-width="0"/>
		<path d="M68 177 v11 a14 14 90 0 1 -14 14 H36 a14 14 90 0 1 -14 -14 V177 H46" fill="#ccd6ba" stroke="#ccd6ba" stroke-width="0"/>
		<rect x="22" y="152" width="46" height="50" fill="none" rx="14" stroke="#85956b" stroke-width="2"/>
		<line x1="22" y1="177" x2="68" y2="177" stroke="#85956b" stroke-width="1"/>
		<text x="30" y="169.75" fill="#27360c" font-family="Verdana" font-size="12">OWN</text>
	</g>
</g>

<!-- Association STAR2 -->
<g>
	<line x1="348" y1="286" x2="243" y2="177" stroke="#726f83" stroke-width="2"/>
	<text x="274" y="247.33" fill="#726f83" font-family="Verdana" font-size="12">0,N</text>
	<line x1="144" y1="177" x2="243" y2="177" stroke="#726f83" stroke-width="2"/>
	<text x="185" y="194" fill="#726f83" font-family="Verdana" font-size="12">0,N</text>
	<g>
		<path d="M253 152 a14 14 90 0 1 14 14 V177 h-48 V166 a14 14 90 0 1 14 -14" fill="#b2bba4" stroke="#b2bba4" stroke-width="0"/>
		<path d="M267 177 v11 a14 14 90 0 1 -14 14 H233 a14 14 90 0 1 -14 -14 V177 H48" fill="#ccd6ba" stroke="#ccd6ba" stroke-width="0"/>
		<rect x="219" y="152" width="48" height="50" fill="none" rx="14" stroke="#85956b" stroke-width="2"/>
		<line x1="219" y1="177" x2="267" y2="177" stroke="#85956b" stroke-width="1"/>
		<text x="227" y="169.75" fill="#27360c" font-family="Verdana" font-size="12">STAR</text>
	</g>
</g>

<!-- Association OWN -->
<g>
	<line x1="348" y1="286" x2="348" y2="177" stroke="#726f83" stroke-width="2"/>
	<text x="353" y="219" fill="#726f83" font-family="Verdana" font-size="12">0,N</text>
	<line x1="348" y1="68" x2="348" y2="177" stroke="#726f83" stroke-width="2"/>
	<text x="353" y="144" fill="#726f83" font-family="Verdana" font-size="12">1,1</text>
	<g>
		<path d="M357 152 a14 14 90 0 1 14 14 V177 h-46 V166 a14 14 90 0 1 14 -14" fill="#b2bba4" stroke="#b2bba4" stroke-width="0"/>
		<path d="M371 177 v11 a14 14 90 0 1 -14 14 H339 a14 14 90 0 1 -14 -14 V177 H46" fill="#ccd6ba" stroke="#ccd6ba" stroke-width="0"/>
		<rect x="325" y="152" width="46" height="50" fill="none" rx="14" stroke="#85956b" stroke-width="2"/>
		<line x1="325" y1="177" x2="371" y2="177" stroke="#85956b" stroke-width="1"/>
		<text x="333" y="169.75" fill="#27360c" font-family="Verdana" font-size="12">OWN</text>
	</g>
</g>

<!-- Association STAR -->
<g>
	<line x1="144" y1="395" x2="144" y2="286" stroke="#726f83" stroke-width="2"/>
	<text x="149" y="345" fill="#726f83" font-family="Verdana" font-size="12">0,N</text>
	<line x1="144" y1="177" x2="144" y2="286" stroke="#726f83" stroke-width="2"/>
	<text x="117" y="236" fill="#726f83" font-family="Verdana" font-size="12">0,N</text>
	<g>
		<path d="M154 261 a14 14 90 0 1 14 14 V286 h-48 V275 a14 14 90 0 1 14 -14" fill="#b2bba4" stroke="#b2bba4" stroke-width="0"/>
		<path d="M168 286 v11 a14 14 90 0 1 -14 14 H134 a14 14 90 0 1 -14 -14 V286 H48" fill="#ccd6ba" stroke="#ccd6ba" stroke-width="0"/>
		<rect x="120" y="261" width="48" height="50" fill="none" rx="14" stroke="#85956b" stroke-width="2"/>
		<line x1="120" y1="286" x2="168" y2="286" stroke="#85956b" stroke-width="1"/>
		<text x="128" y="278.75" fill="#27360c" font-family="Verdana" font-size="12">STAR</text>
	</g>
</g>

<!-- Association OWN2 -->
<g>
	<line x1="348" y1="286" x2="243" y2="286" stroke="#726f83" stroke-width="2"/>
	<text x="274" y="303" fill="#726f83" font-family="Verdana" font-size="12">0,N</text>
	<line x1="144" y1="177" x2="243" y2="286" stroke="#726f83" stroke-width="2"/>
	<text x="185" y="215.23" fill="#726f83" font-family="Verdana" font-size="12">0,N</text>
	<g>
		<path d="M252 261 a14 14 90 0 1 14 14 V286 h-46 V275 a14 14 90 0 1 14 -14" fill="#b2bba4" stroke="#b2bba4" stroke-width="0"/>
		<path d="M266 286 v11 a14 14 90 0 1 -14 14 H234 a14 14 90 0 1 -14 -14 V286 H46" fill="#ccd6ba" stroke="#ccd6ba" stroke-width="0"/>
		<rect x="220" y="261" width="46" height="50" fill="none" rx="14" stroke="#85956b" stroke-width="2"/>
		<line x1="220" y1="286" x2="266" y2="286" stroke="#85956b" stroke-width="1"/>
		<text x="228" y="278.75" fill="#27360c" font-family="Verdana" font-size="12">OWN</text>
	</g>
</g>

<!-- Association BELONG -->
<g>
	<line x1="348" y1="286" x2="462" y2="286" stroke="#726f83" stroke-width="2"/>
	<text x="400" y="303" fill="#726f83" font-family="Verdana" font-size="12">0,N</text>
	<line x1="462" y1="177" x2="462" y2="286" stroke="#726f83" stroke-width="2"/>
	<text x="467" y="228" fill="#726f83" font-family="Verdana" font-size="12">1,N</text>
	<g>
		<path d="M481 261 a14 14 90 0 1 14 14 V286 h-66 V275 a14 14 90 0 1 14 -14" fill="#b2bba4" stroke="#b2bba4" stroke-width="0"/>
		<path d="M495 286 v11 a14 14 90 0 1 -14 14 H443 a14 14 90 0 1 -14 -14 V286 H66" fill="#ccd6ba" stroke="#ccd6ba" stroke-width="0"/>
		<rect x="429" y="261" width="66" height="50" fill="none" rx="14" stroke="#85956b" stroke-width="2"/>
		<line x1="429" y1="286" x2="495" y2="286" stroke="#85956b" stroke-width="1"/>
		<text x="437" y="278.75" fill="#27360c" font-family="Verdana" font-size="12">BELONG</text>
	</g>
</g>

<!-- Association CONTAIN2 -->
<g>
	<line x1="45" y1="286" x2="45" y2="395" stroke="#726f83" stroke-width="2"/>
	<text x="50" y="345" fill="#726f83" font-family="Verdana" font-size="12">0,N</text>
	<line x1="144" y1="395" x2="45" y2="395" stroke="#726f83" stroke-width="2"/>
	<text x="86" y="412" fill="#726f83" font-family="Verdana" font-size="12">0,N</text>
	<g>
		<path d="M67 370 a14 14 90 0 1 14 14 V395 h-72 V384 a14 14 90 0 1 14 -14" fill="#b2bba4" stroke="#b2bba4" stroke-width="0"/>
		<path d="M81 395 v11 a14 14 90 0 1 -14 14 H23 a14 14 90 0 1 -14 -14 V395 H72" fill="#ccd6ba" stroke="#ccd6ba" stroke-width="0"/>
		<rect x="9" y="370" width="72" height="50" fill="none" rx="14" stroke="#85956b" stroke-width="2"/>
		<line x1="9" y1="395" x2="81" y2="395" stroke="#85956b" stroke-width="1"/>
		<text x="16" y="387.75" fill="#27360c" font-family="Verdana" font-size="12">CONTAIN</text>
	</g>
</g>

<!-- Association CONTAIN1 -->
<g>
	<line x1="348" y1="286" x2="243" y2="395" stroke="#726f83" stroke-width="2"/>
	<text x="274" y="333.67" fill="#726f83" font-family="Verdana" font-size="12">1,N</text>
	<line x1="144" y1="395" x2="243" y2="395" stroke="#726f83" stroke-width="2"/>
	<text x="180" y="412" fill="#726f83" font-family="Verdana" font-size="12">0,N</text>
	<g>
		<path d="M265 370 a14 14 90 0 1 14 14 V395 h-72 V384 a14 14 90 0 1 14 -14" fill="#b2bba4" stroke="#b2bba4" stroke-width="0"/>
		<path d="M279 395 v11 a14 14 90 0 1 -14 14 H221 a14 14 90 0 1 -14 -14 V395 H72" fill="#ccd6ba" stroke="#ccd6ba" stroke-width="0"/>
		<rect x="207" y="370" width="72" height="50" fill="none" rx="14" stroke="#85956b" stroke-width="2"/>
		<line x1="207" y1="395" x2="279" y2="395" stroke="#85956b" stroke-width="1"/>
		<text x="214" y="387.75" fill="#27360c" font-family="Verdana" font-size="12">CONTAIN</text>
	</g>
</g>

<!-- Entity ARTIST -->
<g>
	<g>
		<rect x="299" y="9" width="98" height="25" fill="#97b8ff" stroke="#97b8ff" stroke-width="0" opacity="1"/>
		<rect x="299" y="34" width="98" height="93" fill="#c0d4ff" stroke="#c0d4ff" stroke-width="0" opacity="1"/>
		<rect x="299" y="9" width="98" height="118" fill="none" stroke="#578dff" stroke-width="2" opacity="1"/>
		<line x1="299" y1="34" x2="397" y2="34" stroke="#578dff" stroke-width="1"/>
	</g>
	<text x="325" y="26.75" fill="#131114" font-family="Verdana" font-size="12">ARTIST</text>
	<text x="304" y="51.8" fill="#3e3c42" font-family="Verdana" font-size="12">id</text>
	<line x1="304" y1="54" x2="316" y2="54" stroke="#3e3c42" stroke-width="1"/>
	<text x="304" y="68.8" fill="#3e3c42" font-family="Verdana" font-size="12">name</text>
	<text x="304" y="85.8" fill="#3e3c42" font-family="Verdana" font-size="12">cover</text>
	<text x="304" y="102.8" fill="#3e3c42" font-family="Verdana" font-size="12">description</text>
	<text x="304" y="119.8" fill="#3e3c42" font-family="Verdana" font-size="12">origin_country</text>
</g>

<!-- Entity USER -->
<g>
	<g>
		<rect x="108" y="135" width="72" height="25" fill="#97b8ff" stroke="#97b8ff" stroke-width="0" opacity="1"/>
		<rect x="108" y="160" width="72" height="59" fill="#c0d4ff" stroke="#c0d4ff" stroke-width="0" opacity="1"/>
		<rect x="108" y="135" width="72" height="84" fill="none" stroke="#578dff" stroke-width="2" opacity="1"/>
		<line x1="108" y1="160" x2="180" y2="160" stroke="#578dff" stroke-width="1"/>
	</g>
	<text x="127" y="152.75" fill="#131114" font-family="Verdana" font-size="12">USER</text>
	<text x="113" y="177.8" fill="#3e3c42" font-family="Verdana" font-size="12">id</text>
	<line x1="113" y1="180" x2="125" y2="180" stroke="#3e3c42" stroke-width="1"/>
	<text x="113" y="194.8" fill="#3e3c42" font-family="Verdana" font-size="12">username</text>
	<text x="113" y="211.8" fill="#3e3c42" font-family="Verdana" font-size="12">password</text>
</g>

<!-- Entity GENRE -->
<g>
	<g>
		<rect x="435" y="143" width="54" height="25" fill="#97b8ff" stroke="#97b8ff" stroke-width="0" opacity="1"/>
		<rect x="435" y="168" width="54" height="43" fill="#c0d4ff" stroke="#c0d4ff" stroke-width="0" opacity="1"/>
		<rect x="435" y="143" width="54" height="68" fill="none" stroke="#578dff" stroke-width="2" opacity="1"/>
		<line x1="435" y1="168" x2="489" y2="168" stroke="#578dff" stroke-width="1"/>
	</g>
	<text x="441" y="160.75" fill="#131114" font-family="Verdana" font-size="12">GENRE</text>
	<text x="440" y="185.8" fill="#3e3c42" font-family="Verdana" font-size="12">id</text>
	<line x1="440" y1="188" x2="452" y2="188" stroke="#3e3c42" stroke-width="1"/>
	<text x="440" y="202.8" fill="#3e3c42" font-family="Verdana" font-size="12">name</text>
</g>

<!-- Entity PLAYLIST -->
<g>
	<g>
		<rect x="11" y="244" width="68" height="25" fill="#97b8ff" stroke="#97b8ff" stroke-width="0" opacity="1"/>
		<rect x="11" y="269" width="68" height="59" fill="#c0d4ff" stroke="#c0d4ff" stroke-width="0" opacity="1"/>
		<rect x="11" y="244" width="68" height="84" fill="none" stroke="#578dff" stroke-width="2" opacity="1"/>
		<line x1="11" y1="269" x2="79" y2="269" stroke="#578dff" stroke-width="1"/>
	</g>
	<text x="16" y="261.75" fill="#131114" font-family="Verdana" font-size="12">PLAYLIST</text>
	<text x="16" y="286.8" fill="#3e3c42" font-family="Verdana" font-size="12">id</text>
	<line x1="16" y1="289" x2="28" y2="289" stroke="#3e3c42" stroke-width="1"/>
	<text x="16" y="303.8" fill="#3e3c42" font-family="Verdana" font-size="12">name</text>
	<text x="16" y="320.8" fill="#3e3c42" font-family="Verdana" font-size="12">cover</text>
</g>

<!-- Entity ALBUM -->
<g>
	<g>
		<rect x="301" y="227" width="94" height="25" fill="#97b8ff" stroke="#97b8ff" stroke-width="0" opacity="1"/>
		<rect x="301" y="252" width="94" height="93" fill="#c0d4ff" stroke="#c0d4ff" stroke-width="0" opacity="1"/>
		<rect x="301" y="227" width="94" height="118" fill="none" stroke="#578dff" stroke-width="2" opacity="1"/>
		<line x1="301" y1="252" x2="395" y2="252" stroke="#578dff" stroke-width="1"/>
	</g>
	<text x="327" y="244.75" fill="#131114" font-family="Verdana" font-size="12">ALBUM</text>
	<text x="306" y="269.8" fill="#3e3c42" font-family="Verdana" font-size="12">id</text>
	<line x1="306" y1="272" x2="318" y2="272" stroke="#3e3c42" stroke-width="1"/>
	<text x="306" y="286.8" fill="#3e3c42" font-family="Verdana" font-size="12">name</text>
	<text x="306" y="303.8" fill="#3e3c42" font-family="Verdana" font-size="12">cover</text>
	<text x="306" y="320.8" fill="#3e3c42" font-family="Verdana" font-size="12">type</text>
	<text x="306" y="337.8" fill="#3e3c42" font-family="Verdana" font-size="12">creation_date</text>
</g>

<!-- Entity SONG -->
<g>
	<g>
		<rect x="113" y="353" width="62" height="25" fill="#97b8ff" stroke="#97b8ff" stroke-width="0" opacity="1"/>
		<rect x="113" y="378" width="62" height="59" fill="#c0d4ff" stroke="#c0d4ff" stroke-width="0" opacity="1"/>
		<rect x="113" y="353" width="62" height="84" fill="none" stroke="#578dff" stroke-width="2" opacity="1"/>
		<line x1="113" y1="378" x2="175" y2="378" stroke="#578dff" stroke-width="1"/>
	</g>
	<text x="126" y="370.75" fill="#131114" font-family="Verdana" font-size="12">SONG</text>
	<text x="118" y="395.8" fill="#3e3c42" font-family="Verdana" font-size="12">id</text>
	<line x1="118" y1="398" x2="130" y2="398" stroke="#3e3c42" stroke-width="1"/>
	<text x="118" y="412.8" fill="#3e3c42" font-family="Verdana" font-size="12">name</text>
	<text x="118" y="429.8" fill="#3e3c42" font-family="Verdana" font-size="12">duration</text>
</g>
</svg>