<?xml version="1.0" encoding="utf-8"?>
<svg width="254" height="136" viewBox="0 0 254 136" xmlns="http://www.w3.org/2000/svg">
<rect id="frame" x="0" y="0" width="254" height="136" fill="#f7f7f7" stroke="none" stroke-width="0"/>

<!-- Entity ALBUM -->
<g>
	<g>
		<rect x="9" y="9" width="62" height="25" fill="#b8e186" stroke="#b8e186" stroke-width="0" opacity="1"/>
		<rect x="9" y="34" width="62" height="93" fill="#e6f5d0" stroke="#e6f5d0" stroke-width="0" opacity="1"/>
		<rect x="9" y="9" width="62" height="118" fill="none" stroke="#7fbc41" stroke-width="2" opacity="1"/>
		<line x1="9" y1="34" x2="71" y2="34" stroke="#7fbc41" stroke-width="1"/>
	</g>
	<text x="19" y="26.75" fill="#000" font-family="Verdana" font-size="12">ALBUM</text>
	<text x="14" y="51.8" fill="#000" font-family="Verdana" font-size="12">id</text>
	<line x1="14" y1="54" x2="26" y2="54" stroke="#000" stroke-width="1"/>
	<text x="14" y="68.8" fill="#000" font-family="Verdana" font-size="12">name</text>
	<text x="14" y="85.8" fill="#000" font-family="Verdana" font-size="12">duration</text>
	<text x="14" y="102.8" fill="#000" font-family="Verdana" font-size="12">genre</text>
</g>

<!-- Entity ARTIST -->
<g>
	<g>
		<rect x="103" y="26" width="56" height="25" fill="#b8e186" stroke="#b8e186" stroke-width="0" opacity="1"/>
		<rect x="103" y="51" width="56" height="59" fill="#e6f5d0" stroke="#e6f5d0" stroke-width="0" opacity="1"/>
		<rect x="103" y="26" width="56" height="84" fill="none" stroke="#7fbc41" stroke-width="2" opacity="1"/>
		<line x1="103" y1="51" x2="159" y2="51" stroke="#7fbc41" stroke-width="1"/>
	</g>
	<text x="108" y="43.75" fill="#000" font-family="Verdana" font-size="12">ARTIST</text>
	<text x="108" y="68.8" fill="#000" font-family="Verdana" font-size="12">id</text>
	<line x1="108" y1="71" x2="120" y2="71" stroke="#000" stroke-width="1"/>
	<text x="108" y="85.8" fill="#000" font-family="Verdana" font-size="12">name</text>
</g>

<!-- Entity GENRE -->
<g>
	<g>
		<rect x="191" y="26" width="54" height="25" fill="#b8e186" stroke="#b8e186" stroke-width="0" opacity="1"/>
		<rect x="191" y="51" width="54" height="59" fill="#e6f5d0" stroke="#e6f5d0" stroke-width="0" opacity="1"/>
		<rect x="191" y="26" width="54" height="84" fill="none" stroke="#7fbc41" stroke-width="2" opacity="1"/>
		<line x1="191" y1="51" x2="245" y2="51" stroke="#7fbc41" stroke-width="1"/>
	</g>
	<text x="197" y="43.75" fill="#000" font-family="Verdana" font-size="12">GENRE</text>
	<text x="196" y="68.8" fill="#000" font-family="Verdana" font-size="12">id</text>
	<line x1="196" y1="71" x2="208" y2="71" stroke="#000" stroke-width="1"/>
	<text x="196" y="85.8" fill="#000" font-family="Verdana" font-size="12">name</text>
</g>
</svg>