<?xml version="1.0" encoding="utf-8"?>
<svg width="386" height="396" viewBox="0 0 386 396" xmlns="http://www.w3.org/2000/svg">
<rect id="frame" x="0" y="0" width="386" height="396" fill="none" stroke="none" stroke-width="0"/>

<!-- Association POSSEDER3 -->
<g>
	<line x1="242" y1="236" x2="242" y2="127" stroke="#726f83" stroke-width="2"/>
	<text x="247" y="169" fill="#726f83" font-family="Verdana" font-size="12">0,N</text>
	<line x1="242" y1="43" x2="242" y2="127" stroke="#726f83" stroke-width="2"/>
	<text x="247" y="94" fill="#726f83" font-family="Verdana" font-size="12">1,N</text>
	<g>
		<path d="M269 102 a14 14 90 0 1 14 14 V127 h-82 V116 a14 14 90 0 1 14 -14" fill="#b2bba4" stroke="#b2bba4" stroke-width="0"/>
		<path d="M283 127 v11 a14 14 90 0 1 -14 14 H215 a14 14 90 0 1 -14 -14 V127 H82" fill="#ccd6ba" stroke="#ccd6ba" stroke-width="0"/>
		<rect x="201" y="102" width="82" height="50" fill="none" rx="14" stroke="#85956b" stroke-width="2"/>
		<line x1="201" y1="127" x2="283" y2="127" stroke="#85956b" stroke-width="1"/>
		<text x="209" y="119.75" fill="#27360c" font-family="Verdana" font-size="12">POSSEDER</text>
	</g>
</g>

<!-- Association POSSEDER2 -->
<g>
	<line x1="242" y1="236" x2="138" y2="236" stroke="#726f83" stroke-width="2"/>
	<text x="184" y="253" fill="#726f83" font-family="Verdana" font-size="12">0,N</text>
	<line x1="37" y1="236" x2="138" y2="236" stroke="#726f83" stroke-width="2"/>
	<text x="70" y="253" fill="#726f83" font-family="Verdana" font-size="12">0,1</text>
	<g>
		<path d="M165 211 a14 14 90 0 1 14 14 V236 h-82 V225 a14 14 90 0 1 14 -14" fill="#b2bba4" stroke="#b2bba4" stroke-width="0"/>
		<path d="M179 236 v11 a14 14 90 0 1 -14 14 H111 a14 14 90 0 1 -14 -14 V236 H82" fill="#ccd6ba" stroke="#ccd6ba" stroke-width="0"/>
		<rect x="97" y="211" width="82" height="50" fill="none" rx="14" stroke="#85956b" stroke-width="2"/>
		<line x1="97" y1="236" x2="179" y2="236" stroke="#85956b" stroke-width="1"/>
		<text x="105" y="228.75" fill="#27360c" font-family="Verdana" font-size="12">POSSEDER</text>
	</g>
</g>

<!-- Association POSSEDER -->
<g>
	<line x1="242" y1="236" x2="242" y2="345" stroke="#726f83" stroke-width="2"/>
	<text x="247" y="312" fill="#726f83" font-family="Verdana" font-size="12">1,N</text>
	<line x1="346" y1="345" x2="242" y2="345" stroke="#726f83" stroke-width="2"/>
	<text x="288" y="362" fill="#726f83" font-family="Verdana" font-size="12">0,N</text>
	<g>
		<path d="M269 320 a14 14 90 0 1 14 14 V345 h-82 V334 a14 14 90 0 1 14 -14" fill="#b2bba4" stroke="#b2bba4" stroke-width="0"/>
		<path d="M283 345 v11 a14 14 90 0 1 -14 14 H215 a14 14 90 0 1 -14 -14 V345 H82" fill="#ccd6ba" stroke="#ccd6ba" stroke-width="0"/>
		<rect x="201" y="320" width="82" height="50" fill="none" rx="14" stroke="#85956b" stroke-width="2"/>
		<line x1="201" y1="345" x2="283" y2="345" stroke="#85956b" stroke-width="1"/>
		<text x="209" y="337.75" fill="#27360c" font-family="Verdana" font-size="12">POSSEDER</text>
	</g>
</g>

<!-- Entity GENRE -->
<g>
	<g>
		<rect x="215" y="9" width="54" height="25" fill="#97b8ff" stroke="#97b8ff" stroke-width="0" opacity="1"/>
		<rect x="215" y="34" width="54" height="43" fill="#c0d4ff" stroke="#c0d4ff" stroke-width="0" opacity="1"/>
		<rect x="215" y="9" width="54" height="68" fill="none" stroke="#578dff" stroke-width="2" opacity="1"/>
		<line x1="215" y1="34" x2="269" y2="34" stroke="#578dff" stroke-width="1"/>
	</g>
	<text x="221" y="26.75" fill="#131114" font-family="Verdana" font-size="12">GENRE</text>
	<text x="220" y="51.8" fill="#3e3c42" font-family="Verdana" font-size="12">id</text>
	<line x1="220" y1="54" x2="232" y2="54" stroke="#3e3c42" stroke-width="1"/>
	<text x="220" y="68.8" fill="#3e3c42" font-family="Verdana" font-size="12">name</text>
</g>

<!-- Entity ARTIST -->
<g>
	<g>
		<rect x="9" y="202" width="56" height="25" fill="#97b8ff" stroke="#97b8ff" stroke-width="0" opacity="1"/>
		<rect x="9" y="227" width="56" height="43" fill="#c0d4ff" stroke="#c0d4ff" stroke-width="0" opacity="1"/>
		<rect x="9" y="202" width="56" height="68" fill="none" stroke="#578dff" stroke-width="2" opacity="1"/>
		<line x1="9" y1="227" x2="65" y2="227" stroke="#578dff" stroke-width="1"/>
	</g>
	<text x="14" y="219.75" fill="#131114" font-family="Verdana" font-size="12">ARTIST</text>
	<text x="14" y="244.8" fill="#3e3c42" font-family="Verdana" font-size="12">id</text>
	<line x1="14" y1="247" x2="26" y2="247" stroke="#3e3c42" stroke-width="1"/>
	<text x="14" y="261.8" fill="#3e3c42" font-family="Verdana" font-size="12">name</text>
</g>

<!-- Entity ALBUM -->
<g>
	<g>
		<rect x="211" y="177" width="62" height="25" fill="#97b8ff" stroke="#97b8ff" stroke-width="0" opacity="1"/>
		<rect x="211" y="202" width="62" height="93" fill="#c0d4ff" stroke="#c0d4ff" stroke-width="0" opacity="1"/>
		<rect x="211" y="177" width="62" height="118" fill="none" stroke="#578dff" stroke-width="2" opacity="1"/>
		<line x1="211" y1="202" x2="273" y2="202" stroke="#578dff" stroke-width="1"/>
	</g>
	<text x="221" y="194.75" fill="#131114" font-family="Verdana" font-size="12">ALBUM</text>
	<text x="216" y="219.8" fill="#3e3c42" font-family="Verdana" font-size="12">id</text>
	<line x1="216" y1="222" x2="228" y2="222" stroke="#3e3c42" stroke-width="1"/>
	<text x="216" y="236.8" fill="#3e3c42" font-family="Verdana" font-size="12">name</text>
	<text x="216" y="253.8" fill="#3e3c42" font-family="Verdana" font-size="12">duration</text>
	<text x="216" y="270.8" fill="#3e3c42" font-family="Verdana" font-size="12">genre</text>
	<text x="216" y="287.8" fill="#3e3c42" font-family="Verdana" font-size="12">year</text>
</g>

<!-- Entity SONG -->
<g>
	<g>
		<rect x="315" y="303" width="62" height="25" fill="#97b8ff" stroke="#97b8ff" stroke-width="0" opacity="1"/>
		<rect x="315" y="328" width="62" height="59" fill="#c0d4ff" stroke="#c0d4ff" stroke-width="0" opacity="1"/>
		<rect x="315" y="303" width="62" height="84" fill="none" stroke="#578dff" stroke-width="2" opacity="1"/>
		<line x1="315" y1="328" x2="377" y2="328" stroke="#578dff" stroke-width="1"/>
	</g>
	<text x="328" y="320.75" fill="#131114" font-family="Verdana" font-size="12">SONG</text>
	<text x="320" y="345.8" fill="#3e3c42" font-family="Verdana" font-size="12">id</text>
	<line x1="320" y1="348" x2="332" y2="348" stroke="#3e3c42" stroke-width="1"/>
	<text x="320" y="362.8" fill="#3e3c42" font-family="Verdana" font-size="12">name</text>
	<text x="320" y="379.8" fill="#3e3c42" font-family="Verdana" font-size="12">duration</text>
</g>
</svg>