<svg version="1.1" xmlns="http://www.w3.org/2000/svg" xmlns:xlink="http://www.w3.org/1999/xlink" width="796.2353515625" height="589"><defs/><g><text fill="#eeeeee" stroke="none" font-family="Arial" font-size="24px" font-style="normal" font-weight="normal" text-decoration="none" x="0" y="0"></text><text fill="#eeeeee" stroke="none" font-family="Arial" font-size="24px" font-style="normal" font-weight="normal" text-decoration="none" x="0" y="30"></text><text fill="#eeeeee" stroke="none" font-family="Arial" font-size="24px" font-style="normal" font-weight="normal" text-decoration="none" x="0" y="60"></text><text fill="#eeeeee" stroke="none" font-family="Arial" font-size="24px" font-style="normal" font-weight="normal" text-decoration="none" x="0" y="90"></text><text fill="#eeeeee" stroke="none" font-family="Arial" font-size="24px" font-style="normal" font-weight="normal" text-decoration="none" x="0" y="120"></text><text fill="#eeeeee" stroke="none" font-family="Arial" font-size="24px" font-style="normal" font-weight="normal" text-decoration="none" x="0" y="150"></text><text fill="#eeeeee" stroke="none" font-family="Arial" font-size="24px" font-style="normal" font-weight="normal" text-decoration="none" x="0" y="180"></text><text fill="#eeeeee" stroke="none" font-family="Arial" font-size="24px" font-style="normal" font-weight="normal" text-decoration="none" x="0" y="210"></text><text fill="#eeeeee" stroke="none" font-family="Arial" font-size="24px" font-style="normal" font-weight="normal" text-decoration="none" x="0" y="240"></text><text fill="#eeeeee" stroke="none" font-family="Arial" font-size="24px" font-style="normal" font-weight="normal" text-decoration="none" x="0" y="270"></text><text fill="#eeeeee" stroke="none" font-family="Arial" font-size="24px" font-style="normal" font-weight="normal" text-decoration="none" x="0" y="300"></text><text fill="#eeeeee" stroke="none" font-family="Arial" font-size="24px" font-style="normal" font-weight="normal" text-decoration="none" x="0" y="330"></text><text fill="#eeeeee" stroke="none" font-family="Arial" font-size="24px" font-style="normal" font-weight="normal" text-decoration="none" x="0" y="360"></text><text fill="#eeeeee" stroke="none" font-family="Arial" font-size="24px" font-style="normal" font-weight="normal" text-decoration="none" x="0" y="390"></text><text fill="#eeeeee" stroke="none" font-family="Arial" font-size="24px" font-style="normal" font-weight="normal" text-decoration="none" x="0" y="420"></text><text fill="#eeeeee" stroke="none" font-family="Arial" font-size="24px" font-style="normal" font-weight="normal" text-decoration="none" x="0" y="450"></text><text fill="#eeeeee" stroke="none" font-family="Arial" font-size="24px" font-style="normal" font-weight="normal" text-decoration="none" x="0" y="480"></text><text fill="#eeeeee" stroke="none" font-family="Arial" font-size="24px" font-style="normal" font-weight="normal" text-decoration="none" x="0" y="510"></text><text fill="#eeeeee" stroke="none" font-family="Arial" font-size="24px" font-style="normal" font-weight="normal" text-decoration="none" x="0" y="540"></text><text fill="#eeeeee" stroke="none" font-family="Arial" font-size="24px" font-style="normal" font-weight="normal" text-decoration="none" x="0" y="570"></text><text fill="#eeeeee" stroke="none" font-family="Arial" font-size="24px" font-style="normal" font-weight="normal" text-decoration="none" x="200" y="0"></text><text fill="#eeeeee" stroke="none" font-family="Arial" font-size="24px" font-style="normal" font-weight="normal" text-decoration="none" x="200" y="30"></text><text fill="#eeeeee" stroke="none" font-family="Arial" font-size="24px" font-style="normal" font-weight="normal" text-decoration="none" x="200" y="60"></text><text fill="#eeeeee" stroke="none" font-family="Arial" font-size="24px" font-style="normal" font-weight="normal" text-decoration="none" x="200" y="90"></text><text fill="#eeeeee" stroke="none" font-family="Arial" font-size="24px" font-style="normal" font-weight="normal" text-decoration="none" x="200" y="120"></text><text fill="#eeeeee" stroke="none" font-family="Arial" font-size="24px" font-style="normal" font-weight="normal" text-decoration="none" x="200" y="150"></text><text fill="#eeeeee" stroke="none" font-family="Arial" font-size="24px" font-style="normal" font-weight="normal" text-decoration="none" x="200" y="180"></text><text fill="#eeeeee" stroke="none" font-family="Arial" font-size="24px" font-style="normal" font-weight="normal" text-decoration="none" x="200" y="210"></text><text fill="#eeeeee" stroke="none" font-family="Arial" font-size="24px" font-style="normal" font-weight="normal" text-decoration="none" x="200" y="240"></text><text fill="#eeeeee" stroke="none" font-family="Arial" font-size="24px" font-style="normal" font-weight="normal" text-decoration="none" x="200" y="270"></text><text fill="#eeeeee" stroke="none" font-family="Arial" font-size="24px" font-style="normal" font-weight="normal" text-decoration="none" x="200" y="300"></text><text fill="#eeeeee" stroke="none" font-family="Arial" font-size="24px" font-style="normal" font-weight="normal" text-decoration="none" x="200" y="330"></text><text fill="#eeeeee" stroke="none" font-family="Arial" font-size="24px" font-style="normal" font-weight="normal" text-decoration="none" x="200" y="360"></text><text fill="#eeeeee" stroke="none" font-family="Arial" font-size="24px" font-style="normal" font-weight="normal" text-decoration="none" x="200" y="390"></text><text fill="#eeeeee" stroke="none" font-family="Arial" font-size="24px" font-style="normal" font-weight="normal" text-decoration="none" x="200" y="420"></text><text fill="#eeeeee" stroke="none" font-family="Arial" font-size="24px" font-style="normal" font-weight="normal" text-decoration="none" x="200" y="450"></text><text fill="#eeeeee" stroke="none" font-family="Arial" font-size="24px" font-style="normal" font-weight="normal" text-decoration="none" x="200" y="480"></text><text fill="#eeeeee" stroke="none" font-family="Arial" font-size="24px" font-style="normal" font-weight="normal" text-decoration="none" x="200" y="510"></text><text fill="#eeeeee" stroke="none" font-family="Arial" font-size="24px" font-style="normal" font-weight="normal" text-decoration="none" x="200" y="540"></text><text fill="#eeeeee" stroke="none" font-family="Arial" font-size="24px" font-style="normal" font-weight="normal" text-decoration="none" x="200" y="570"></text><text fill="#eeeeee" stroke="none" font-family="Arial" font-size="24px" font-style="normal" font-weight="normal" text-decoration="none" x="400" y="0"></text><text fill="#eeeeee" stroke="none" font-family="Arial" font-size="24px" font-style="normal" font-weight="normal" text-decoration="none" x="400" y="30"></text><text fill="#eeeeee" stroke="none" font-family="Arial" font-size="24px" font-style="normal" font-weight="normal" text-decoration="none" x="400" y="60"></text><text fill="#eeeeee" stroke="none" font-family="Arial" font-size="24px" font-style="normal" font-weight="normal" text-decoration="none" x="400" y="90"></text><text fill="#eeeeee" stroke="none" font-family="Arial" font-size="24px" font-style="normal" font-weight="normal" text-decoration="none" x="400" y="120"></text><text fill="#eeeeee" stroke="none" font-family="Arial" font-size="24px" font-style="normal" font-weight="normal" text-decoration="none" x="400" y="150"></text><text fill="#eeeeee" stroke="none" font-family="Arial" font-size="24px" font-style="normal" font-weight="normal" text-decoration="none" x="400" y="180"></text><text fill="#eeeeee" stroke="none" font-family="Arial" font-size="24px" font-style="normal" font-weight="normal" text-decoration="none" x="400" y="210"></text><text fill="#eeeeee" stroke="none" font-family="Arial" font-size="24px" font-style="normal" font-weight="normal" text-decoration="none" x="400" y="240"></text><text fill="#eeeeee" stroke="none" font-family="Arial" font-size="24px" font-style="normal" font-weight="normal" text-decoration="none" x="400" y="270"></text><text fill="#eeeeee" stroke="none" font-family="Arial" font-size="24px" font-style="normal" font-weight="normal" text-decoration="none" x="400" y="300"></text><text fill="#eeeeee" stroke="none" font-family="Arial" font-size="24px" font-style="normal" font-weight="normal" text-decoration="none" x="400" y="330"></text><text fill="#eeeeee" stroke="none" font-family="Arial" font-size="24px" font-style="normal" font-weight="normal" text-decoration="none" x="400" y="360"></text><text fill="#eeeeee" stroke="none" font-family="Arial" font-size="24px" font-style="normal" font-weight="normal" text-decoration="none" x="400" y="390"></text><text fill="#eeeeee" stroke="none" font-family="Arial" font-size="24px" font-style="normal" font-weight="normal" text-decoration="none" x="400" y="420"></text><text fill="#eeeeee" stroke="none" font-family="Arial" font-size="24px" font-style="normal" font-weight="normal" text-decoration="none" x="400" y="450"></text><text fill="#eeeeee" stroke="none" font-family="Arial" font-size="24px" font-style="normal" font-weight="normal" text-decoration="none" x="400" y="480"></text><text fill="#eeeeee" stroke="none" font-family="Arial" font-size="24px" font-style="normal" font-weight="normal" text-decoration="none" x="400" y="510"></text><text fill="#eeeeee" stroke="none" font-family="Arial" font-size="24px" font-style="normal" font-weight="normal" text-decoration="none" x="400" y="540"></text><text fill="#eeeeee" stroke="none" font-family="Arial" font-size="24px" font-style="normal" font-weight="normal" text-decoration="none" x="400" y="570"></text><text fill="#eeeeee" stroke="none" font-family="Arial" font-size="24px" font-style="normal" font-weight="normal" text-decoration="none" x="600" y="0"></text><text fill="#eeeeee" stroke="none" font-family="Arial" font-size="24px" font-style="normal" font-weight="normal" text-decoration="none" x="600" y="30"></text><text fill="#eeeeee" stroke="none" font-family="Arial" font-size="24px" font-style="normal" font-weight="normal" text-decoration="none" x="600" y="60"></text><text fill="#eeeeee" stroke="none" font-family="Arial" font-size="24px" font-style="normal" font-weight="normal" text-decoration="none" x="600" y="90"></text><text fill="#eeeeee" stroke="none" font-family="Arial" font-size="24px" font-style="normal" font-weight="normal" text-decoration="none" x="600" y="120"></text><text fill="#eeeeee" stroke="none" font-family="Arial" font-size="24px" font-style="normal" font-weight="normal" text-decoration="none" x="600" y="150"></text><text fill="#eeeeee" stroke="none" font-family="Arial" font-size="24px" font-style="normal" font-weight="normal" text-decoration="none" x="600" y="180"></text><text fill="#eeeeee" stroke="none" font-family="Arial" font-size="24px" font-style="normal" font-weight="normal" text-decoration="none" x="600" y="210"></text><text fill="#eeeeee" stroke="none" font-family="Arial" font-size="24px" font-style="normal" font-weight="normal" text-decoration="none" x="600" y="240"></text><text fill="#eeeeee" stroke="none" font-family="Arial" font-size="24px" font-style="normal" font-weight="normal" text-decoration="none" x="600" y="270"></text><text fill="#eeeeee" stroke="none" font-family="Arial" font-size="24px" font-style="normal" font-weight="normal" text-decoration="none" x="600" y="300"></text><text fill="#eeeeee" stroke="none" font-family="Arial" font-size="24px" font-style="normal" font-weight="normal" text-decoration="none" x="600" y="330"></text><text fill="#eeeeee" stroke="none" font-family="Arial" font-size="24px" font-style="normal" font-weight="normal" text-decoration="none" x="600" y="360"></text><text fill="#eeeeee" stroke="none" font-family="Arial" font-size="24px" font-style="normal" font-weight="normal" text-decoration="none" x="600" y="390"></text><text fill="#eeeeee" stroke="none" font-family="Arial" font-size="24px" font-style="normal" font-weight="normal" text-decoration="none" x="600" y="420"></text><text fill="#eeeeee" stroke="none" font-family="Arial" font-size="24px" font-style="normal" font-weight="normal" text-decoration="none" x="600" y="450"></text><text fill="#eeeeee" stroke="none" font-family="Arial" font-size="24px" font-style="normal" font-weight="normal" text-decoration="none" x="600" y="480"></text><text fill="#eeeeee" stroke="none" font-family="Arial" font-size="24px" font-style="normal" font-weight="normal" text-decoration="none" x="600" y="510"></text><text fill="#eeeeee" stroke="none" font-family="Arial" font-size="24px" font-style="normal" font-weight="normal" text-decoration="none" x="600" y="540"></text><text fill="#eeeeee" stroke="none" font-family="Arial" font-size="24px" font-style="normal" font-weight="normal" text-decoration="none" x="600" y="570"></text><g transform="translate(-598,-190) scale(1,1)"><rect fill="#C0C0C0" stroke="none" x="733" y="207" width="115.58349609375" height="72" opacity="0.2"/></g><g transform="translate(-598,-190) scale(1,1)"><rect fill="#ffffff" stroke="none" x="726" y="200" width="115.58349609375" height="72"/></g><g transform="translate(-598,-190) scale(1,1)"><path fill="none" stroke="#000000" d="M 726 200 L 841.58349609375 200 L 841.58349609375 272 L 726 272 L 726 200 Z Z" stroke-miterlimit="10"/></g><g transform="translate(-598,-190) scale(1,1)"><path fill="none" stroke="#000000" d="M 726 225 L 841.58349609375 225" stroke-miterlimit="10"/></g><g transform="translate(-598,-190) scale(1,1)"><path fill="none" stroke="#000000" d="M 726 263 L 841.58349609375 263" stroke-miterlimit="10"/></g><g transform="translate(-598,-190) scale(1,1)"><g><path fill="none" stroke="none"/><text fill="#000000" stroke="none" font-family="Arial" font-size="13px" font-style="normal" font-weight="bold" text-decoration="none" x="769.338134765625" y="217.471923828125">User</text></g></g><g transform="translate(-598,-190) scale(1,1)"><g><path fill="none" stroke="none"/><text fill="#000000" stroke="none" font-family="Arial" font-size="13px" font-style="normal" font-weight="normal" text-decoration="none" x="731" y="240.7099609375">-username: String</text></g></g><g transform="translate(-598,-190) scale(1,1)"><g><path fill="none" stroke="none"/><text fill="#000000" stroke="none" font-family="Arial" font-size="13px" font-style="normal" font-weight="normal" text-decoration="none" x="731" y="255.7099609375">-password: String</text></g></g><g transform="translate(-598,-190) scale(1,1)"><rect fill="#C0C0C0" stroke="none" x="730" y="487" width="120.642578125" height="117" opacity="0.2"/></g><g transform="translate(-598,-190) scale(1,1)"><rect fill="#ffffff" stroke="none" x="723" y="480" width="120.642578125" height="117"/></g><g transform="translate(-598,-190) scale(1,1)"><path fill="none" stroke="#000000" d="M 723 480 L 843.642578125 480 L 843.642578125 597 L 723 597 L 723 480 Z Z" stroke-miterlimit="10"/></g><g transform="translate(-598,-190) scale(1,1)"><path fill="none" stroke="#000000" d="M 723 505 L 843.642578125 505" stroke-miterlimit="10"/></g><g transform="translate(-598,-190) scale(1,1)"><path fill="none" stroke="#000000" d="M 723 588 L 843.642578125 588" stroke-miterlimit="10"/></g><g transform="translate(-598,-190) scale(1,1)"><g><path fill="none" stroke="none"/><text fill="#000000" stroke="none" font-family="Arial" font-size="13px" font-style="normal" font-weight="bold" text-decoration="none" x="740.338134765625" y="497.7099609375">AlbumPlaylist</text></g></g><g transform="translate(-598,-190) scale(1,1)"><g><path fill="none" stroke="none"/><text fill="#000000" stroke="none" font-family="Arial" font-size="13px" font-style="normal" font-weight="normal" text-decoration="none" x="728" y="520.7099609375">-name: String</text></g></g><g transform="translate(-598,-190) scale(1,1)"><g><path fill="none" stroke="none"/><text fill="#000000" stroke="none" font-family="Arial" font-size="13px" font-style="normal" font-weight="normal" text-decoration="none" x="728" y="535.7099609375">-cover: String</text></g></g><g transform="translate(-598,-190) scale(1,1)"><g><path fill="none" stroke="none"/><text fill="#000000" stroke="none" font-family="Arial" font-size="13px" font-style="normal" font-weight="normal" text-decoration="none" x="728" y="550.7099609375">-type: String</text></g></g><g transform="translate(-598,-190) scale(1,1)"><g><path fill="none" stroke="none"/><text fill="#000000" stroke="none" font-family="Arial" font-size="13px" font-style="normal" font-weight="normal" text-decoration="none" x="728" y="565.7099609375">-description: String</text></g></g><g transform="translate(-598,-190) scale(1,1)"><g><path fill="none" stroke="none"/><text fill="#000000" stroke="none" font-family="Arial" font-size="13px" font-style="normal" font-weight="normal" text-decoration="none" x="728" y="580.7099609375">-genres: String[]</text></g></g><g transform="translate(-598,-190) scale(1,1)"><rect fill="#C0C0C0" stroke="none" x="871" y="647" width="117.03076171875" height="87" opacity="0.2"/></g><g transform="translate(-598,-190) scale(1,1)"><rect fill="#ffffff" stroke="none" x="864" y="640" width="117.03076171875" height="87"/></g><g transform="translate(-598,-190) scale(1,1)"><path fill="none" stroke="#000000" d="M 864 640 L 981.03076171875 640 L 981.03076171875 727 L 864 727 L 864 640 Z Z" stroke-miterlimit="10"/></g><g transform="translate(-598,-190) scale(1,1)"><path fill="none" stroke="#000000" d="M 864 665 L 981.03076171875 665" stroke-miterlimit="10"/></g><g transform="translate(-598,-190) scale(1,1)"><path fill="none" stroke="#000000" d="M 864 718 L 981.03076171875 718" stroke-miterlimit="10"/></g><g transform="translate(-598,-190) scale(1,1)"><g><path fill="none" stroke="none"/><text fill="#000000" stroke="none" font-family="Arial" font-size="13px" font-style="normal" font-weight="bold" text-decoration="none" x="906.2685546875" y="657.53857421875">Song</text></g></g><g transform="translate(-598,-190) scale(1,1)"><g><path fill="none" stroke="none"/><text fill="#000000" stroke="none" font-family="Arial" font-size="13px" font-style="normal" font-weight="normal" text-decoration="none" x="869" y="680.7099609375">-name: String</text></g></g><g transform="translate(-598,-190) scale(1,1)"><g><path fill="none" stroke="none"/><text fill="#000000" stroke="none" font-family="Arial" font-size="13px" font-style="normal" font-weight="normal" text-decoration="none" x="869" y="695.7099609375">-duration: int</text></g></g><g transform="translate(-598,-190) scale(1,1)"><g><path fill="none" stroke="none"/><text fill="#000000" stroke="none" font-family="Arial" font-size="13px" font-style="normal" font-weight="normal" text-decoration="none" x="869" y="710.7099609375">-genres: String[]</text></g></g><g transform="translate(-598,-190) scale(1,1)"><path fill="none" stroke="#000000" d="M 844 544 L 928 544 L 928 640" stroke-miterlimit="10"/></g><g transform="translate(-598,-190) scale(1,1)"><path fill="none" stroke="#000000" d="M 923.790482243984 629.8373251423759 L 928 640 L 932.209517756016 629.8373251423759" stroke-miterlimit="10"/></g><g transform="translate(-598,-190) scale(1,1)"><g><path fill="none" stroke="none"/><text fill="#000000" stroke="none" font-family="Arial" font-size="13px" font-style="normal" font-weight="normal" text-decoration="none" x="936.13134765625" y="625.49755859375">-songs</text></g></g><g transform="translate(-598,-190) scale(1,1)"><g><path fill="none" stroke="none"/><text fill="#000000" stroke="none" font-family="Arial" font-size="13px" font-style="normal" font-weight="normal" text-decoration="none" x="905.5" y="622.53857421875">0..*</text></g></g><g transform="translate(-598,-190) scale(1,1)"><rect fill="#C0C0C0" stroke="none" x="615" y="639" width="139.431640625" height="117" opacity="0.2"/></g><g transform="translate(-598,-190) scale(1,1)"><rect fill="#ffffff" stroke="none" x="608" y="632" width="139.431640625" height="117"/></g><g transform="translate(-598,-190) scale(1,1)"><path fill="none" stroke="#000000" d="M 608 632 L 747.431640625 632 L 747.431640625 749 L 608 749 L 608 632 Z Z" stroke-miterlimit="10"/></g><g transform="translate(-598,-190) scale(1,1)"><path fill="none" stroke="#000000" d="M 608 657 L 747.431640625 657" stroke-miterlimit="10"/></g><g transform="translate(-598,-190) scale(1,1)"><path fill="none" stroke="#000000" d="M 608 740 L 747.431640625 740" stroke-miterlimit="10"/></g><g transform="translate(-598,-190) scale(1,1)"><g><path fill="none" stroke="none"/><text fill="#000000" stroke="none" font-family="Arial" font-size="13px" font-style="normal" font-weight="bold" text-decoration="none" x="660.7421875" y="649.7099609375">Artist</text></g></g><g transform="translate(-598,-190) scale(1,1)"><g><path fill="none" stroke="none"/><text fill="#000000" stroke="none" font-family="Arial" font-size="13px" font-style="normal" font-weight="normal" text-decoration="none" x="613" y="672.7099609375">-name: String</text></g></g><g transform="translate(-598,-190) scale(1,1)"><g><path fill="none" stroke="none"/><text fill="#000000" stroke="none" font-family="Arial" font-size="13px" font-style="normal" font-weight="normal" text-decoration="none" x="613" y="687.7099609375">-cover: String</text></g></g><g transform="translate(-598,-190) scale(1,1)"><g><path fill="none" stroke="none"/><text fill="#000000" stroke="none" font-family="Arial" font-size="13px" font-style="normal" font-weight="normal" text-decoration="none" x="613" y="702.7099609375">-description: String</text></g></g><g transform="translate(-598,-190) scale(1,1)"><g><path fill="none" stroke="none"/><text fill="#000000" stroke="none" font-family="Arial" font-size="13px" font-style="normal" font-weight="normal" text-decoration="none" x="613" y="717.7099609375">-origin_country: String</text></g></g><g transform="translate(-598,-190) scale(1,1)"><g><path fill="none" stroke="none"/><text fill="#000000" stroke="none" font-family="Arial" font-size="13px" font-style="normal" font-weight="normal" text-decoration="none" x="613" y="732.7099609375">-genres: Sting[]</text></g></g><g transform="translate(-598,-190) scale(1,1)"><path fill="none" stroke="#000000" d="M 723 507 L 680 507 L 680 632" stroke-miterlimit="10"/></g><g transform="translate(-598,-190) scale(1,1)"><path fill="none" stroke="#000000" d="M 675.790482243984 621.8373251423759 L 680 632 L 684.209517756016 621.8373251423759" stroke-miterlimit="10"/></g><g transform="translate(-598,-190) scale(1,1)"><g><path fill="none" stroke="none"/><text fill="#000000" stroke="none" font-family="Arial" font-size="13px" font-style="normal" font-weight="normal" text-decoration="none" x="695.13134765625" y="619.7099609375">-artist</text></g></g><g transform="translate(-598,-190) scale(1,1)"><g><path fill="none" stroke="none"/><text fill="#000000" stroke="none" font-family="Arial" font-size="13px" font-style="normal" font-weight="normal" text-decoration="none" x="656.5" y="614.53857421875">0..1</text></g></g><g transform="translate(-598,-190) scale(1,1)"><path fill="none" stroke="#000000" d="M 784 272 L 784 336" stroke-miterlimit="10"/></g><g transform="translate(-598,-190) scale(1,1)"><path fill="none" stroke="#000000" d="M 779.790482243984 325.83732514237585 L 784 336 L 788.209517756016 325.83732514237585" stroke-miterlimit="10"/></g><g transform="translate(-598,-190) scale(1,1)"><g><path fill="none" stroke="none"/><text fill="#000000" stroke="none" font-family="Arial" font-size="13px" font-style="normal" font-weight="normal" text-decoration="none" x="794.13134765625" y="321.7099609375">-library</text></g></g><g transform="translate(-598,-190) scale(1,1)"><g><path fill="none" stroke="none"/><text fill="#000000" stroke="none" font-family="Arial" font-size="13px" font-style="normal" font-weight="normal" text-decoration="none" x="761.5" y="318.53857421875">0..*</text></g></g><g transform="translate(-598,-190) scale(1,1)"><rect fill="#C0C0C0" stroke="none" x="730" y="343" width="120.97900390625" height="57" opacity="0.2"/></g><g transform="translate(-598,-190) scale(1,1)"><rect fill="#ffffff" stroke="none" x="723" y="336" width="120.97900390625" height="57"/></g><g transform="translate(-598,-190) scale(1,1)"><path fill="none" stroke="#000000" d="M 723 336 L 843.97900390625 336 L 843.97900390625 393 L 723 393 L 723 336 Z Z" stroke-miterlimit="10"/></g><g transform="translate(-598,-190) scale(1,1)"><path fill="none" stroke="#000000" d="M 723 361 L 843.97900390625 361" stroke-miterlimit="10"/></g><g transform="translate(-598,-190) scale(1,1)"><path fill="none" stroke="#000000" d="M 723 384 L 843.97900390625 384" stroke-miterlimit="10"/></g><g transform="translate(-598,-190) scale(1,1)"><g><path fill="none" stroke="none"/><text fill="#000000" stroke="none" font-family="Arial" font-size="13px" font-style="normal" font-weight="bold" text-decoration="none" x="727.5" y="353.7099609375">AlbumPlaylistLike</text></g></g><g transform="translate(-598,-190) scale(1,1)"><g><path fill="none" stroke="none"/><text fill="#000000" stroke="none" font-family="Arial" font-size="13px" font-style="normal" font-weight="normal" text-decoration="none" x="728" y="376.7099609375">-isLike: boolean</text></g></g><g transform="translate(-598,-190) scale(1,1)"><path fill="none" stroke="#000000" d="M 783 394 L 783 479" stroke-miterlimit="10"/></g><g transform="translate(-598,-190) scale(1,1)"><path fill="none" stroke="#000000" d="M 778.790482243984 468.83732514237585 L 783 479 L 787.209517756016 468.83732514237585" stroke-miterlimit="10"/></g><g transform="translate(-598,-190) scale(1,1)"><g><path fill="none" stroke="none"/><text fill="#000000" stroke="none" font-family="Arial" font-size="13px" font-style="normal" font-weight="normal" text-decoration="none" x="789.5" y="465.7099609375">-albumPlaylist</text></g></g><g transform="translate(-598,-190) scale(1,1)"><g><path fill="none" stroke="none"/><text fill="#000000" stroke="none" font-family="Arial" font-size="13px" font-style="normal" font-weight="normal" text-decoration="none" x="766.5" y="461.471923828125">1</text></g></g><g transform="translate(-598,-190) scale(1,1)"><rect fill="#C0C0C0" stroke="none" x="1319" y="391" width="72.2353515625" height="72" opacity="0.2"/></g><g transform="translate(-598,-190) scale(1,1)"><rect fill="#ffffff" stroke="none" x="1312" y="384" width="72.2353515625" height="72"/></g><g transform="translate(-598,-190) scale(1,1)"><path fill="none" stroke="#000000" d="M 1312 384 L 1384.2353515625 384 L 1384.2353515625 456 L 1312 456 L 1312 384 Z Z" stroke-miterlimit="10"/></g><g transform="translate(-598,-190) scale(1,1)"><path fill="none" stroke="#000000" d="M 1312 409 L 1384.2353515625 409" stroke-miterlimit="10"/></g><g transform="translate(-598,-190) scale(1,1)"><path fill="none" stroke="#000000" d="M 1312 447 L 1384.2353515625 447" stroke-miterlimit="10"/></g><g transform="translate(-598,-190) scale(1,1)"><g><path fill="none" stroke="none"/><text fill="#000000" stroke="none" font-family="Arial" font-size="13px" font-style="normal" font-weight="bold" text-decoration="none" x="1329.331787109375" y="401.53857421875">Genre</text></g></g><g transform="translate(-598,-190) scale(1,1)"><g><path fill="none" stroke="none"/><text fill="#000000" stroke="none" font-family="Arial" font-size="13px" font-style="normal" font-weight="normal" text-decoration="none" x="1317" y="423.49755859375">-name</text></g></g><g transform="translate(-598,-190) scale(1,1)"><g><path fill="none" stroke="none"/><text fill="#000000" stroke="none" font-family="Arial" font-size="13px" font-style="normal" font-weight="normal" text-decoration="none" x="1317" y="438.49755859375">-cover</text></g></g><g transform="translate(-598,-190) scale(1,1)"><path fill="none" stroke="#000000" d="M 864 691 L 747 691" stroke-miterlimit="10"/></g><g transform="translate(-598,-190) scale(1,1)"><path fill="none" stroke="#000000" d="M 757.1626748576241 686.790482243984 L 747 691 L 757.1626748576241 695.209517756016" stroke-miterlimit="10"/></g><g transform="translate(-598,-190) scale(1,1)"><g><path fill="none" stroke="none"/><text fill="#000000" stroke="none" font-family="Arial" font-size="13px" font-style="normal" font-weight="normal" text-decoration="none" x="758.5" y="682.53857421875">0..*</text></g></g><g transform="translate(-598,-190) scale(1,1)"><rect fill="#C0C0C0" stroke="none" x="1023" y="391" width="192" height="64" opacity="0.2"/></g><g transform="translate(-598,-190) scale(1,1)"><rect fill="#ffffff" stroke="none" x="1016" y="384" width="192" height="64"/></g><g transform="translate(-598,-190) scale(1,1)"><path fill="none" stroke="#000000" d="M 1016 384 L 1208 384 L 1208 448 L 1016 448 L 1016 384 Z Z" stroke-miterlimit="10"/></g><g transform="translate(-598,-190) scale(1,1)"><g><path fill="none" stroke="none"/><text fill="#000000" stroke="none" font-family="Arial" font-size="13px" font-style="normal" font-weight="bold" text-decoration="none" x="1089.61181640625" y="401.7099609375">ObjetId</text></g></g><g transform="translate(-598,-190) scale(1,1)"><path fill="none" stroke="#000000" d="M 842 234 L 1128 234 L 1128 384" stroke-miterlimit="10"/></g><g transform="translate(-598,-190) scale(1,1)"><path fill="none" stroke="#000000" d="M 1123.7904822439841 373.83732514237585 L 1128 384 L 1132.2095177560159 373.83732514237585" stroke-miterlimit="10"/></g><g transform="translate(-598,-190) scale(1,1)"><g><path fill="none" stroke="none"/><text fill="#000000" stroke="none" font-family="Arial" font-size="13px" font-style="normal" font-weight="normal" text-decoration="none" x="1132.13134765625" y="362.7099609375">-_id</text></g></g><g transform="translate(-598,-190) scale(1,1)"><g><path fill="none" stroke="none"/><text fill="#000000" stroke="none" font-family="Arial" font-size="13px" font-style="normal" font-weight="normal" text-decoration="none" x="1111.5" y="366.471923828125">1</text></g></g><g transform="translate(-598,-190) scale(1,1)"><path fill="none" stroke="#000000" d="M 783 336 L 783 320 L 1056 320 L 1056 384" stroke-miterlimit="10"/></g><g transform="translate(-598,-190) scale(1,1)"><path fill="none" stroke="#000000" d="M 1051.7904822439841 373.83732514237585 L 1056 384 L 1060.2095177560159 373.83732514237585" stroke-miterlimit="10"/></g><g transform="translate(-598,-190) scale(1,1)"><g><path fill="none" stroke="none"/><text fill="#000000" stroke="none" font-family="Arial" font-size="13px" font-style="normal" font-weight="normal" text-decoration="none" x="1060.318115234375" y="362.7099609375">-_id</text></g></g><g transform="translate(-598,-190) scale(1,1)"><g><path fill="none" stroke="none"/><text fill="#000000" stroke="none" font-family="Arial" font-size="13px" font-style="normal" font-weight="normal" text-decoration="none" x="1039.5" y="366.471923828125">1</text></g></g><g transform="translate(-598,-190) scale(1,1)"><path fill="none" stroke="#000000" d="M 844 504 L 1120 504 L 1120 448" stroke-miterlimit="10"/></g><g transform="translate(-598,-190) scale(1,1)"><path fill="none" stroke="#000000" d="M 1124.2095177560159 458.16267485762415 L 1120 448 L 1115.7904822439841 458.16267485762415" stroke-miterlimit="10"/></g><g transform="translate(-598,-190) scale(1,1)"><g><path fill="none" stroke="none"/><text fill="#000000" stroke="none" font-family="Arial" font-size="13px" font-style="normal" font-weight="normal" text-decoration="none" x="1094.13134765625" y="477.7099609375">-_id</text></g></g><g transform="translate(-598,-190) scale(1,1)"><g><path fill="none" stroke="none"/><text fill="#000000" stroke="none" font-family="Arial" font-size="13px" font-style="normal" font-weight="normal" text-decoration="none" x="1128.5" y="473.471923828125">1</text></g></g><g transform="translate(-598,-190) scale(1,1)"><path fill="none" stroke="#000000" d="M 1312 419 L 1208 419" stroke-miterlimit="10"/></g><g transform="translate(-598,-190) scale(1,1)"><path fill="none" stroke="#000000" d="M 1218.162674857624 414.790482243984 L 1208 419 L 1218.162674857624 423.209517756016" stroke-miterlimit="10"/></g><g transform="translate(-598,-190) scale(1,1)"><g><path fill="none" stroke="none"/><text fill="#000000" stroke="none" font-family="Arial" font-size="13px" font-style="normal" font-weight="normal" text-decoration="none" x="1222.13134765625" y="437.7099609375">-_id</text></g></g><g transform="translate(-598,-190) scale(1,1)"><g><path fill="none" stroke="none"/><text fill="#000000" stroke="none" font-family="Arial" font-size="13px" font-style="normal" font-weight="normal" text-decoration="none" x="1225.5" y="410.471923828125">1</text></g></g><g transform="translate(-598,-190) scale(1,1)"><path fill="none" stroke="#000000" d="M 981 688 L 1064 688 L 1064 448" stroke-miterlimit="10"/></g><g transform="translate(-598,-190) scale(1,1)"><path fill="none" stroke="#000000" d="M 1068.2095177560159 458.16267485762415 L 1064 448 L 1059.7904822439841 458.16267485762415" stroke-miterlimit="10"/></g><g transform="translate(-598,-190) scale(1,1)"><g><path fill="none" stroke="none"/><text fill="#000000" stroke="none" font-family="Arial" font-size="13px" font-style="normal" font-weight="normal" text-decoration="none" x="1038.13134765625" y="477.7099609375">-_id</text></g></g><g transform="translate(-598,-190) scale(1,1)"><g><path fill="none" stroke="none"/><text fill="#000000" stroke="none" font-family="Arial" font-size="13px" font-style="normal" font-weight="normal" text-decoration="none" x="1072.5" y="473.471923828125">1</text></g></g><g transform="translate(-598,-190) scale(1,1)"><path fill="none" stroke="#000000" d="M 680 749 L 680 768 L 1192 768 L 1192 448" stroke-miterlimit="10"/></g><g transform="translate(-598,-190) scale(1,1)"><path fill="none" stroke="#000000" d="M 1196.2095177560159 458.16267485762415 L 1192 448 L 1187.7904822439841 458.16267485762415" stroke-miterlimit="10"/></g><g transform="translate(-598,-190) scale(1,1)"><g><path fill="none" stroke="none"/><text fill="#000000" stroke="none" font-family="Arial" font-size="13px" font-style="normal" font-weight="normal" text-decoration="none" x="1166.13134765625" y="477.7099609375">-_id</text></g></g><g transform="translate(-598,-190) scale(1,1)"><g><path fill="none" stroke="none"/><text fill="#000000" stroke="none" font-family="Arial" font-size="13px" font-style="normal" font-weight="normal" text-decoration="none" x="1200.5" y="473.471923828125">1</text></g></g></g></svg>