<svg version="1.1" xmlns="http://www.w3.org/2000/svg" xmlns:xlink="http://www.w3.org/1999/xlink" width="733.4072265625" height="570"><defs/><g><text fill="#eeeeee" stroke="none" font-family="Arial" font-size="24px" font-style="normal" font-weight="normal" text-decoration="none" x="0" y="0"></text><text fill="#eeeeee" stroke="none" font-family="Arial" font-size="24px" font-style="normal" font-weight="normal" text-decoration="none" x="0" y="30"></text><text fill="#eeeeee" stroke="none" font-family="Arial" font-size="24px" font-style="normal" font-weight="normal" text-decoration="none" x="0" y="60"></text><text fill="#eeeeee" stroke="none" font-family="Arial" font-size="24px" font-style="normal" font-weight="normal" text-decoration="none" x="0" y="90"></text><text fill="#eeeeee" stroke="none" font-family="Arial" font-size="24px" font-style="normal" font-weight="normal" text-decoration="none" x="0" y="120"></text><text fill="#eeeeee" stroke="none" font-family="Arial" font-size="24px" font-style="normal" font-weight="normal" text-decoration="none" x="0" y="150"></text><text fill="#eeeeee" stroke="none" font-family="Arial" font-size="24px" font-style="normal" font-weight="normal" text-decoration="none" x="0" y="180"></text><text fill="#eeeeee" stroke="none" font-family="Arial" font-size="24px" font-style="normal" font-weight="normal" text-decoration="none" x="0" y="210"></text><text fill="#eeeeee" stroke="none" font-family="Arial" font-size="24px" font-style="normal" font-weight="normal" text-decoration="none" x="0" y="240"></text><text fill="#eeeeee" stroke="none" font-family="Arial" font-size="24px" font-style="normal" font-weight="normal" text-decoration="none" x="0" y="270"></text><text fill="#eeeeee" stroke="none" font-family="Arial" font-size="24px" font-style="normal" font-weight="normal" text-decoration="none" x="0" y="300"></text><text fill="#eeeeee" stroke="none" font-family="Arial" font-size="24px" font-style="normal" font-weight="normal" text-decoration="none" x="0" y="330"></text><text fill="#eeeeee" stroke="none" font-family="Arial" font-size="24px" font-style="normal" font-weight="normal" text-decoration="none" x="0" y="360"></text><text fill="#eeeeee" stroke="none" font-family="Arial" font-size="24px" font-style="normal" font-weight="normal" text-decoration="none" x="0" y="390"></text><text fill="#eeeeee" stroke="none" font-family="Arial" font-size="24px" font-style="normal" font-weight="normal" text-decoration="none" x="0" y="420"></text><text fill="#eeeeee" stroke="none" font-family="Arial" font-size="24px" font-style="normal" font-weight="normal" text-decoration="none" x="0" y="450"></text><text fill="#eeeeee" stroke="none" font-family="Arial" font-size="24px" font-style="normal" font-weight="normal" text-decoration="none" x="0" y="480"></text><text fill="#eeeeee" stroke="none" font-family="Arial" font-size="24px" font-style="normal" font-weight="normal" text-decoration="none" x="0" y="510"></text><text fill="#eeeeee" stroke="none" font-family="Arial" font-size="24px" font-style="normal" font-weight="normal" text-decoration="none" x="0" y="540"></text><text fill="#eeeeee" stroke="none" font-family="Arial" font-size="24px" font-style="normal" font-weight="normal" text-decoration="none" x="200" y="0"></text><text fill="#eeeeee" stroke="none" font-family="Arial" font-size="24px" font-style="normal" font-weight="normal" text-decoration="none" x="200" y="30"></text><text fill="#eeeeee" stroke="none" font-family="Arial" font-size="24px" font-style="normal" font-weight="normal" text-decoration="none" x="200" y="60"></text><text fill="#eeeeee" stroke="none" font-family="Arial" font-size="24px" font-style="normal" font-weight="normal" text-decoration="none" x="200" y="90"></text><text fill="#eeeeee" stroke="none" font-family="Arial" font-size="24px" font-style="normal" font-weight="normal" text-decoration="none" x="200" y="120"></text><text fill="#eeeeee" stroke="none" font-family="Arial" font-size="24px" font-style="normal" font-weight="normal" text-decoration="none" x="200" y="150"></text><text fill="#eeeeee" stroke="none" font-family="Arial" font-size="24px" font-style="normal" font-weight="normal" text-decoration="none" x="200" y="180"></text><text fill="#eeeeee" stroke="none" font-family="Arial" font-size="24px" font-style="normal" font-weight="normal" text-decoration="none" x="200" y="210"></text><text fill="#eeeeee" stroke="none" font-family="Arial" font-size="24px" font-style="normal" font-weight="normal" text-decoration="none" x="200" y="240"></text><text fill="#eeeeee" stroke="none" font-family="Arial" font-size="24px" font-style="normal" font-weight="normal" text-decoration="none" x="200" y="270"></text><text fill="#eeeeee" stroke="none" font-family="Arial" font-size="24px" font-style="normal" font-weight="normal" text-decoration="none" x="200" y="300"></text><text fill="#eeeeee" stroke="none" font-family="Arial" font-size="24px" font-style="normal" font-weight="normal" text-decoration="none" x="200" y="330"></text><text fill="#eeeeee" stroke="none" font-family="Arial" font-size="24px" font-style="normal" font-weight="normal" text-decoration="none" x="200" y="360"></text><text fill="#eeeeee" stroke="none" font-family="Arial" font-size="24px" font-style="normal" font-weight="normal" text-decoration="none" x="200" y="390"></text><text fill="#eeeeee" stroke="none" font-family="Arial" font-size="24px" font-style="normal" font-weight="normal" text-decoration="none" x="200" y="420"></text><text fill="#eeeeee" stroke="none" font-family="Arial" font-size="24px" font-style="normal" font-weight="normal" text-decoration="none" x="200" y="450"></text><text fill="#eeeeee" stroke="none" font-family="Arial" font-size="24px" font-style="normal" font-weight="normal" text-decoration="none" x="200" y="480"></text><text fill="#eeeeee" stroke="none" font-family="Arial" font-size="24px" font-style="normal" font-weight="normal" text-decoration="none" x="200" y="510"></text><text fill="#eeeeee" stroke="none" font-family="Arial" font-size="24px" font-style="normal" font-weight="normal" text-decoration="none" x="200" y="540"></text><text fill="#eeeeee" stroke="none" font-family="Arial" font-size="24px" font-style="normal" font-weight="normal" text-decoration="none" x="400" y="0"></text><text fill="#eeeeee" stroke="none" font-family="Arial" font-size="24px" font-style="normal" font-weight="normal" text-decoration="none" x="400" y="30"></text><text fill="#eeeeee" stroke="none" font-family="Arial" font-size="24px" font-style="normal" font-weight="normal" text-decoration="none" x="400" y="60"></text><text fill="#eeeeee" stroke="none" font-family="Arial" font-size="24px" font-style="normal" font-weight="normal" text-decoration="none" x="400" y="90"></text><text fill="#eeeeee" stroke="none" font-family="Arial" font-size="24px" font-style="normal" font-weight="normal" text-decoration="none" x="400" y="120"></text><text fill="#eeeeee" stroke="none" font-family="Arial" font-size="24px" font-style="normal" font-weight="normal" text-decoration="none" x="400" y="150"></text><text fill="#eeeeee" stroke="none" font-family="Arial" font-size="24px" font-style="normal" font-weight="normal" text-decoration="none" x="400" y="180"></text><text fill="#eeeeee" stroke="none" font-family="Arial" font-size="24px" font-style="normal" font-weight="normal" text-decoration="none" x="400" y="210"></text><text fill="#eeeeee" stroke="none" font-family="Arial" font-size="24px" font-style="normal" font-weight="normal" text-decoration="none" x="400" y="240"></text><text fill="#eeeeee" stroke="none" font-family="Arial" font-size="24px" font-style="normal" font-weight="normal" text-decoration="none" x="400" y="270"></text><text fill="#eeeeee" stroke="none" font-family="Arial" font-size="24px" font-style="normal" font-weight="normal" text-decoration="none" x="400" y="300"></text><text fill="#eeeeee" stroke="none" font-family="Arial" font-size="24px" font-style="normal" font-weight="normal" text-decoration="none" x="400" y="330"></text><text fill="#eeeeee" stroke="none" font-family="Arial" font-size="24px" font-style="normal" font-weight="normal" text-decoration="none" x="400" y="360"></text><text fill="#eeeeee" stroke="none" font-family="Arial" font-size="24px" font-style="normal" font-weight="normal" text-decoration="none" x="400" y="390"></text><text fill="#eeeeee" stroke="none" font-family="Arial" font-size="24px" font-style="normal" font-weight="normal" text-decoration="none" x="400" y="420"></text><text fill="#eeeeee" stroke="none" font-family="Arial" font-size="24px" font-style="normal" font-weight="normal" text-decoration="none" x="400" y="450"></text><text fill="#eeeeee" stroke="none" font-family="Arial" font-size="24px" font-style="normal" font-weight="normal" text-decoration="none" x="400" y="480"></text><text fill="#eeeeee" stroke="none" font-family="Arial" font-size="24px" font-style="normal" font-weight="normal" text-decoration="none" x="400" y="510"></text><text fill="#eeeeee" stroke="none" font-family="Arial" font-size="24px" font-style="normal" font-weight="normal" text-decoration="none" x="400" y="540"></text><text fill="#eeeeee" stroke="none" font-family="Arial" font-size="24px" font-style="normal" font-weight="normal" text-decoration="none" x="600" y="0"></text><text fill="#eeeeee" stroke="none" font-family="Arial" font-size="24px" font-style="normal" font-weight="normal" text-decoration="none" x="600" y="30"></text><text fill="#eeeeee" stroke="none" font-family="Arial" font-size="24px" font-style="normal" font-weight="normal" text-decoration="none" x="600" y="60"></text><text fill="#eeeeee" stroke="none" font-family="Arial" font-size="24px" font-style="normal" font-weight="normal" text-decoration="none" x="600" y="90"></text><text fill="#eeeeee" stroke="none" font-family="Arial" font-size="24px" font-style="normal" font-weight="normal" text-decoration="none" x="600" y="120"></text><text fill="#eeeeee" stroke="none" font-family="Arial" font-size="24px" font-style="normal" font-weight="normal" text-decoration="none" x="600" y="150"></text><text fill="#eeeeee" stroke="none" font-family="Arial" font-size="24px" font-style="normal" font-weight="normal" text-decoration="none" x="600" y="180"></text><text fill="#eeeeee" stroke="none" font-family="Arial" font-size="24px" font-style="normal" font-weight="normal" text-decoration="none" x="600" y="210"></text><text fill="#eeeeee" stroke="none" font-family="Arial" font-size="24px" font-style="normal" font-weight="normal" text-decoration="none" x="600" y="240"></text><text fill="#eeeeee" stroke="none" font-family="Arial" font-size="24px" font-style="normal" font-weight="normal" text-decoration="none" x="600" y="270"></text><text fill="#eeeeee" stroke="none" font-family="Arial" font-size="24px" font-style="normal" font-weight="normal" text-decoration="none" x="600" y="300"></text><text fill="#eeeeee" stroke="none" font-family="Arial" font-size="24px" font-style="normal" font-weight="normal" text-decoration="none" x="600" y="330"></text><text fill="#eeeeee" stroke="none" font-family="Arial" font-size="24px" font-style="normal" font-weight="normal" text-decoration="none" x="600" y="360"></text><text fill="#eeeeee" stroke="none" font-family="Arial" font-size="24px" font-style="normal" font-weight="normal" text-decoration="none" x="600" y="390"></text><text fill="#eeeeee" stroke="none" font-family="Arial" font-size="24px" font-style="normal" font-weight="normal" text-decoration="none" x="600" y="420"></text><text fill="#eeeeee" stroke="none" font-family="Arial" font-size="24px" font-style="normal" font-weight="normal" text-decoration="none" x="600" y="450"></text><text fill="#eeeeee" stroke="none" font-family="Arial" font-size="24px" font-style="normal" font-weight="normal" text-decoration="none" x="600" y="480"></text><text fill="#eeeeee" stroke="none" font-family="Arial" font-size="24px" font-style="normal" font-weight="normal" text-decoration="none" x="600" y="510"></text><text fill="#eeeeee" stroke="none" font-family="Arial" font-size="24px" font-style="normal" font-weight="normal" text-decoration="none" x="600" y="540"></text><g transform="translate(-110,-190) scale(1,1)"><rect fill="#C0C0C0" stroke="none" x="327" y="551" width="112.32080078125" height="77" opacity="0.2"/></g><g transform="translate(-110,-190) scale(1,1)"><rect fill="#ffffff" stroke="none" x="320" y="544" width="112.32080078125" height="77"/></g><g transform="translate(-110,-190) scale(1,1)"><path fill="none" stroke="#000000" d="M 320 544 L 432.32080078125 544 L 432.32080078125 621 L 320 621 L 320 544 Z Z" stroke-miterlimit="10"/></g><g transform="translate(-110,-190) scale(1,1)"><path fill="none" stroke="#000000" d="M 320 569 L 432.32080078125 569" stroke-miterlimit="10"/></g><g transform="translate(-110,-190) scale(1,1)"><g><path fill="none" stroke="none"/><text fill="#000000" stroke="none" font-family="Arial" font-size="13px" font-style="normal" font-weight="bold" text-decoration="none" x="361.706787109375" y="561.471923828125">User</text></g></g><g transform="translate(-110,-190) scale(1,1)"><g><path fill="none" stroke="none"/><text fill="#000000" stroke="none" font-family="Arial" font-size="13px" font-style="normal" font-weight="normal" text-decoration="none" x="325" y="584.7099609375">-_id: ObjectId</text></g></g><g transform="translate(-110,-190) scale(1,1)"><g><path fill="none" stroke="none"/><text fill="#000000" stroke="none" font-family="Arial" font-size="13px" font-style="normal" font-weight="normal" text-decoration="none" x="325" y="599.7099609375">-username: String</text></g></g><g transform="translate(-110,-190) scale(1,1)"><g><path fill="none" stroke="none"/><text fill="#000000" stroke="none" font-family="Arial" font-size="13px" font-style="normal" font-weight="normal" text-decoration="none" x="325" y="614.7099609375">-password: String</text></g></g><g transform="translate(-110,-190) scale(1,1)"><rect fill="#C0C0C0" stroke="none" x="303" y="695" width="168.68798828125" height="62" opacity="0.2"/></g><g transform="translate(-110,-190) scale(1,1)"><rect fill="#ffffff" stroke="none" x="296" y="688" width="168.68798828125" height="62"/></g><g transform="translate(-110,-190) scale(1,1)"><path fill="none" stroke="#000000" d="M 296 688 L 464.68798828125 688 L 464.68798828125 750 L 296 750 L 296 688 Z Z" stroke-miterlimit="10"/></g><g transform="translate(-110,-190) scale(1,1)"><path fill="none" stroke="#000000" d="M 296 713 L 464.68798828125 713" stroke-miterlimit="10"/></g><g transform="translate(-110,-190) scale(1,1)"><g><path fill="none" stroke="none"/><text fill="#000000" stroke="none" font-family="Arial" font-size="13px" font-style="normal" font-weight="bold" text-decoration="none" x="343.8544921875" y="705.7099609375">UserLibrary</text></g></g><g transform="translate(-110,-190) scale(1,1)"><g><path fill="none" stroke="none"/><text fill="#000000" stroke="none" font-family="Arial" font-size="13px" font-style="normal" font-weight="normal" text-decoration="none" x="301" y="728.7099609375">-album_playlist_id: ObjectId</text></g></g><g transform="translate(-110,-190) scale(1,1)"><g><path fill="none" stroke="none"/><text fill="#000000" stroke="none" font-family="Arial" font-size="13px" font-style="normal" font-weight="normal" text-decoration="none" x="301" y="743.7099609375">-is_like: boolean</text></g></g><g transform="translate(-110,-190) scale(1,1)"><path fill="none" stroke="#000000" d="M 377 621 L 377 688" stroke-miterlimit="10"/></g><g transform="translate(-110,-190) scale(1,1)"><path fill="none" stroke="#000000" d="M 372.790482243984 677.8373251423759 L 377 688 L 381.209517756016 677.8373251423759" stroke-miterlimit="10"/></g><g transform="translate(-110,-190) scale(1,1)"><g><path fill="none" stroke="none"/><text fill="#000000" stroke="none" font-family="Arial" font-size="13px" font-style="normal" font-weight="normal" text-decoration="none" x="384.13134765625" y="666.7099609375">-library</text></g></g><g transform="translate(-110,-190) scale(1,1)"><g><path fill="none" stroke="none"/><text fill="#000000" stroke="none" font-family="Arial" font-size="13px" font-style="normal" font-weight="normal" text-decoration="none" x="354.5" y="670.53857421875">0..*</text></g></g><g transform="translate(-110,-190) scale(1,1)"><rect fill="#C0C0C0" stroke="none" x="511" y="223" width="117.3798828125" height="107" opacity="0.2"/></g><g transform="translate(-110,-190) scale(1,1)"><rect fill="#ffffff" stroke="none" x="504" y="216" width="117.3798828125" height="107"/></g><g transform="translate(-110,-190) scale(1,1)"><path fill="none" stroke="#000000" d="M 504 216 L 621.3798828125 216 L 621.3798828125 323 L 504 323 L 504 216 Z Z" stroke-miterlimit="10"/></g><g transform="translate(-110,-190) scale(1,1)"><path fill="none" stroke="#000000" d="M 504 241 L 621.3798828125 241" stroke-miterlimit="10"/></g><g transform="translate(-110,-190) scale(1,1)"><g><path fill="none" stroke="none"/><text fill="#000000" stroke="none" font-family="Arial" font-size="13px" font-style="normal" font-weight="bold" text-decoration="none" x="519.706787109375" y="233.7099609375">AlbumPlaylist</text></g></g><g transform="translate(-110,-190) scale(1,1)"><g><path fill="none" stroke="none"/><text fill="#000000" stroke="none" font-family="Arial" font-size="13px" font-style="normal" font-weight="normal" text-decoration="none" x="509" y="256.7099609375">-_id: ObjectId</text></g></g><g transform="translate(-110,-190) scale(1,1)"><g><path fill="none" stroke="none"/><text fill="#000000" stroke="none" font-family="Arial" font-size="13px" font-style="normal" font-weight="normal" text-decoration="none" x="509" y="271.7099609375">-name: String</text></g></g><g transform="translate(-110,-190) scale(1,1)"><g><path fill="none" stroke="none"/><text fill="#000000" stroke="none" font-family="Arial" font-size="13px" font-style="normal" font-weight="normal" text-decoration="none" x="509" y="286.7099609375">-cover: String</text></g></g><g transform="translate(-110,-190) scale(1,1)"><g><path fill="none" stroke="none"/><text fill="#000000" stroke="none" font-family="Arial" font-size="13px" font-style="normal" font-weight="normal" text-decoration="none" x="509" y="301.7099609375">-type: String</text></g></g><g transform="translate(-110,-190) scale(1,1)"><g><path fill="none" stroke="none"/><text fill="#000000" stroke="none" font-family="Arial" font-size="13px" font-style="normal" font-weight="normal" text-decoration="none" x="509" y="316.7099609375">-description: String</text></g></g><g transform="translate(-110,-190) scale(1,1)"><rect fill="#C0C0C0" stroke="none" x="511" y="439" width="127.4599609375" height="92" opacity="0.2"/></g><g transform="translate(-110,-190) scale(1,1)"><rect fill="#ffffff" stroke="none" x="504" y="432" width="127.4599609375" height="92"/></g><g transform="translate(-110,-190) scale(1,1)"><path fill="none" stroke="#000000" d="M 504 432 L 631.4599609375 432 L 631.4599609375 524 L 504 524 L 504 432 Z Z" stroke-miterlimit="10"/></g><g transform="translate(-110,-190) scale(1,1)"><path fill="none" stroke="#000000" d="M 504 457 L 631.4599609375 457" stroke-miterlimit="10"/></g><g transform="translate(-110,-190) scale(1,1)"><g><path fill="none" stroke="none"/><text fill="#000000" stroke="none" font-family="Arial" font-size="13px" font-style="normal" font-weight="bold" text-decoration="none" x="508.5" y="449.7099609375">AlbumPlaylistSong</text></g></g><g transform="translate(-110,-190) scale(1,1)"><g><path fill="none" stroke="none"/><text fill="#000000" stroke="none" font-family="Arial" font-size="13px" font-style="normal" font-weight="normal" text-decoration="none" x="509" y="472.7099609375">-id: ObjectId</text></g></g><g transform="translate(-110,-190) scale(1,1)"><g><path fill="none" stroke="none"/><text fill="#000000" stroke="none" font-family="Arial" font-size="13px" font-style="normal" font-weight="normal" text-decoration="none" x="509" y="487.7099609375">-number: Number</text></g></g><g transform="translate(-110,-190) scale(1,1)"><g><path fill="none" stroke="none"/><text fill="#000000" stroke="none" font-family="Arial" font-size="13px" font-style="normal" font-weight="normal" text-decoration="none" x="509" y="502.7099609375">-name: String</text></g></g><g transform="translate(-110,-190) scale(1,1)"><g><path fill="none" stroke="none"/><text fill="#000000" stroke="none" font-family="Arial" font-size="13px" font-style="normal" font-weight="normal" text-decoration="none" x="509" y="517.7099609375">-duration: Number</text></g></g><g transform="translate(-110,-190) scale(1,1)"><rect fill="#C0C0C0" stroke="none" x="679" y="487" width="161.4072265625" height="62" opacity="0.2"/></g><g transform="translate(-110,-190) scale(1,1)"><rect fill="#ffffff" stroke="none" x="672" y="480" width="161.4072265625" height="62"/></g><g transform="translate(-110,-190) scale(1,1)"><path fill="none" stroke="#000000" d="M 672 480 L 833.4072265625 480 L 833.4072265625 542 L 672 542 L 672 480 Z Z" stroke-miterlimit="10"/></g><g transform="translate(-110,-190) scale(1,1)"><path fill="none" stroke="#000000" d="M 672 505 L 833.4072265625 505" stroke-miterlimit="10"/></g><g transform="translate(-110,-190) scale(1,1)"><g><path fill="none" stroke="none"/><text fill="#000000" stroke="none" font-family="Arial" font-size="13px" font-style="normal" font-weight="bold" text-decoration="none" x="676.5" y="497.7099609375">AlbumPlaylistSongArtist</text></g></g><g transform="translate(-110,-190) scale(1,1)"><g><path fill="none" stroke="none"/><text fill="#000000" stroke="none" font-family="Arial" font-size="13px" font-style="normal" font-weight="normal" text-decoration="none" x="677" y="520.7099609375">-id: ObjectId</text></g></g><g transform="translate(-110,-190) scale(1,1)"><g><path fill="none" stroke="none"/><text fill="#000000" stroke="none" font-family="Arial" font-size="13px" font-style="normal" font-weight="normal" text-decoration="none" x="677" y="535.7099609375">-name: String</text></g></g><g transform="translate(-110,-190) scale(1,1)"><rect fill="#C0C0C0" stroke="none" x="687" y="343" width="128.91357421875" height="62" opacity="0.2"/></g><g transform="translate(-110,-190) scale(1,1)"><rect fill="#ffffff" stroke="none" x="680" y="336" width="128.91357421875" height="62"/></g><g transform="translate(-110,-190) scale(1,1)"><path fill="none" stroke="#000000" d="M 680 336 L 808.91357421875 336 L 808.91357421875 398 L 680 398 L 680 336 Z Z" stroke-miterlimit="10"/></g><g transform="translate(-110,-190) scale(1,1)"><path fill="none" stroke="#000000" d="M 680 361 L 808.91357421875 361" stroke-miterlimit="10"/></g><g transform="translate(-110,-190) scale(1,1)"><g><path fill="none" stroke="none"/><text fill="#000000" stroke="none" font-family="Arial" font-size="13px" font-style="normal" font-weight="bold" text-decoration="none" x="684.5" y="353.7099609375">AlbumPlaylistArtist</text></g></g><g transform="translate(-110,-190) scale(1,1)"><g><path fill="none" stroke="none"/><text fill="#000000" stroke="none" font-family="Arial" font-size="13px" font-style="normal" font-weight="normal" text-decoration="none" x="685" y="376.7099609375">-id: ObjectId</text></g></g><g transform="translate(-110,-190) scale(1,1)"><g><path fill="none" stroke="none"/><text fill="#000000" stroke="none" font-family="Arial" font-size="13px" font-style="normal" font-weight="normal" text-decoration="none" x="685" y="391.7099609375">-name: String</text></g></g><g transform="translate(-110,-190) scale(1,1)"><path fill="none" stroke="#000000" d="M 564 323 L 564 432" stroke-miterlimit="10"/></g><g transform="translate(-110,-190) scale(1,1)"><path fill="none" stroke="#000000" d="M 559.790482243984 421.83732514237585 L 564 432 L 568.209517756016 421.83732514237585" stroke-miterlimit="10"/></g><g transform="translate(-110,-190) scale(1,1)"><g><path fill="none" stroke="none"/><text fill="#000000" stroke="none" font-family="Arial" font-size="13px" font-style="normal" font-weight="normal" text-decoration="none" x="569.13134765625" y="405.49755859375">-songs</text></g></g><g transform="translate(-110,-190) scale(1,1)"><g><path fill="none" stroke="none"/><text fill="#000000" stroke="none" font-family="Arial" font-size="13px" font-style="normal" font-weight="normal" text-decoration="none" x="541.5" y="414.53857421875">0..*</text></g></g><g transform="translate(-110,-190) scale(1,1)"><path fill="none" stroke="#000000" d="M 621 280 L 744 280 L 744 336" stroke-miterlimit="10"/></g><g transform="translate(-110,-190) scale(1,1)"><path fill="none" stroke="#000000" d="M 739.790482243984 325.83732514237585 L 744 336 L 748.209517756016 325.83732514237585" stroke-miterlimit="10"/></g><g transform="translate(-110,-190) scale(1,1)"><g><path fill="none" stroke="none"/><text fill="#000000" stroke="none" font-family="Arial" font-size="13px" font-style="normal" font-weight="normal" text-decoration="none" x="756.13134765625" y="331.7099609375">-artist</text></g></g><g transform="translate(-110,-190) scale(1,1)"><g><path fill="none" stroke="none"/><text fill="#000000" stroke="none" font-family="Arial" font-size="13px" font-style="normal" font-weight="normal" text-decoration="none" x="727.5" y="318.471923828125">1</text></g></g><g transform="translate(-110,-190) scale(1,1)"><path fill="none" stroke="#000000" d="M 746 398 L 746 480" stroke-miterlimit="10"/></g><g transform="translate(-110,-190) scale(1,1)"><path fill="none" stroke="#000000" d="M 741.790482243984 469.83732514237585 L 746 480 L 750.209517756016 469.83732514237585" stroke-miterlimit="10"/></g><g transform="translate(-110,-190) scale(1,1)"><g><path fill="none" stroke="none"/><text fill="#000000" stroke="none" font-family="Arial" font-size="13px" font-style="normal" font-weight="normal" text-decoration="none" x="751.13134765625" y="465.7099609375">-featurings</text></g></g><g transform="translate(-110,-190) scale(1,1)"><g><path fill="none" stroke="none"/><text fill="#000000" stroke="none" font-family="Arial" font-size="13px" font-style="normal" font-weight="normal" text-decoration="none" x="723.5" y="462.53857421875">0..*</text></g></g><g transform="translate(-110,-190) scale(1,1)"><rect fill="#C0C0C0" stroke="none" x="127" y="207" width="136.1689453125" height="107" opacity="0.2"/></g><g transform="translate(-110,-190) scale(1,1)"><rect fill="#ffffff" stroke="none" x="120" y="200" width="136.1689453125" height="107"/></g><g transform="translate(-110,-190) scale(1,1)"><path fill="none" stroke="#000000" d="M 120 200 L 256.1689453125 200 L 256.1689453125 307 L 120 307 L 120 200 Z Z" stroke-miterlimit="10"/></g><g transform="translate(-110,-190) scale(1,1)"><path fill="none" stroke="#000000" d="M 120 225 L 256.1689453125 225" stroke-miterlimit="10"/></g><g transform="translate(-110,-190) scale(1,1)"><g><path fill="none" stroke="none"/><text fill="#000000" stroke="none" font-family="Arial" font-size="13px" font-style="normal" font-weight="bold" text-decoration="none" x="171.11083984375" y="217.7099609375">Artist</text></g></g><g transform="translate(-110,-190) scale(1,1)"><g><path fill="none" stroke="none"/><text fill="#000000" stroke="none" font-family="Arial" font-size="13px" font-style="normal" font-weight="normal" text-decoration="none" x="125" y="240.7099609375">-_id: ObjectId</text></g></g><g transform="translate(-110,-190) scale(1,1)"><g><path fill="none" stroke="none"/><text fill="#000000" stroke="none" font-family="Arial" font-size="13px" font-style="normal" font-weight="normal" text-decoration="none" x="125" y="255.7099609375">-name: String</text></g></g><g transform="translate(-110,-190) scale(1,1)"><g><path fill="none" stroke="none"/><text fill="#000000" stroke="none" font-family="Arial" font-size="13px" font-style="normal" font-weight="normal" text-decoration="none" x="125" y="270.7099609375">-cover: String</text></g></g><g transform="translate(-110,-190) scale(1,1)"><g><path fill="none" stroke="none"/><text fill="#000000" stroke="none" font-family="Arial" font-size="13px" font-style="normal" font-weight="normal" text-decoration="none" x="125" y="285.7099609375">-description: String</text></g></g><g transform="translate(-110,-190) scale(1,1)"><g><path fill="none" stroke="none"/><text fill="#000000" stroke="none" font-family="Arial" font-size="13px" font-style="normal" font-weight="normal" text-decoration="none" x="125" y="300.7099609375">-origin_country: String</text></g></g><g transform="translate(-110,-190) scale(1,1)"><rect fill="#C0C0C0" stroke="none" x="135" y="439" width="113.76806640625" height="92" opacity="0.2"/></g><g transform="translate(-110,-190) scale(1,1)"><rect fill="#ffffff" stroke="none" x="128" y="432" width="113.76806640625" height="92"/></g><g transform="translate(-110,-190) scale(1,1)"><path fill="none" stroke="#000000" d="M 128 432 L 241.76806640625 432 L 241.76806640625 524 L 128 524 L 128 432 Z Z" stroke-miterlimit="10"/></g><g transform="translate(-110,-190) scale(1,1)"><path fill="none" stroke="#000000" d="M 128 457 L 241.76806640625 457" stroke-miterlimit="10"/></g><g transform="translate(-110,-190) scale(1,1)"><g><path fill="none" stroke="none"/><text fill="#000000" stroke="none" font-family="Arial" font-size="13px" font-style="normal" font-weight="bold" text-decoration="none" x="168.63720703125" y="449.53857421875">Song</text></g></g><g transform="translate(-110,-190) scale(1,1)"><g><path fill="none" stroke="none"/><text fill="#000000" stroke="none" font-family="Arial" font-size="13px" font-style="normal" font-weight="normal" text-decoration="none" x="133" y="472.7099609375">-_id: ObjectId</text></g></g><g transform="translate(-110,-190) scale(1,1)"><g><path fill="none" stroke="none"/><text fill="#000000" stroke="none" font-family="Arial" font-size="13px" font-style="normal" font-weight="normal" text-decoration="none" x="133" y="487.7099609375">-number: Number</text></g></g><g transform="translate(-110,-190) scale(1,1)"><g><path fill="none" stroke="none"/><text fill="#000000" stroke="none" font-family="Arial" font-size="13px" font-style="normal" font-weight="normal" text-decoration="none" x="133" y="502.7099609375">-name: String</text></g></g><g transform="translate(-110,-190) scale(1,1)"><g><path fill="none" stroke="none"/><text fill="#000000" stroke="none" font-family="Arial" font-size="13px" font-style="normal" font-weight="normal" text-decoration="none" x="133" y="517.7099609375">-duration: Number</text></g></g><g transform="translate(-110,-190) scale(1,1)"><rect fill="#C0C0C0" stroke="none" x="615" y="615" width="87.03173828125" height="77" opacity="0.2"/></g><g transform="translate(-110,-190) scale(1,1)"><rect fill="#ffffff" stroke="none" x="608" y="608" width="87.03173828125" height="77"/></g><g transform="translate(-110,-190) scale(1,1)"><path fill="none" stroke="#000000" d="M 608 608 L 695.03173828125 608 L 695.03173828125 685 L 608 685 L 608 608 Z Z" stroke-miterlimit="10"/></g><g transform="translate(-110,-190) scale(1,1)"><path fill="none" stroke="#000000" d="M 608 633 L 695.03173828125 633" stroke-miterlimit="10"/></g><g transform="translate(-110,-190) scale(1,1)"><g><path fill="none" stroke="none"/><text fill="#000000" stroke="none" font-family="Arial" font-size="13px" font-style="normal" font-weight="bold" text-decoration="none" x="632.72998046875" y="625.53857421875">Genre</text></g></g><g transform="translate(-110,-190) scale(1,1)"><g><path fill="none" stroke="none"/><text fill="#000000" stroke="none" font-family="Arial" font-size="13px" font-style="normal" font-weight="normal" text-decoration="none" x="613" y="648.7099609375">-_id: ObjectId</text></g></g><g transform="translate(-110,-190) scale(1,1)"><g><path fill="none" stroke="none"/><text fill="#000000" stroke="none" font-family="Arial" font-size="13px" font-style="normal" font-weight="normal" text-decoration="none" x="613" y="663.7099609375">-name: String</text></g></g><g transform="translate(-110,-190) scale(1,1)"><g><path fill="none" stroke="none"/><text fill="#000000" stroke="none" font-family="Arial" font-size="13px" font-style="normal" font-weight="normal" text-decoration="none" x="613" y="678.7099609375">-cover: String</text></g></g><g transform="translate(-110,-190) scale(1,1)"><rect fill="#C0C0C0" stroke="none" x="343" y="351" width="87.03173828125" height="72" opacity="0.2"/></g><g transform="translate(-110,-190) scale(1,1)"><rect fill="#ffffff" stroke="none" x="336" y="344" width="87.03173828125" height="72"/></g><g transform="translate(-110,-190) scale(1,1)"><path fill="none" stroke="#000000" d="M 336 344 L 423.03173828125 344 L 423.03173828125 416 L 336 416 L 336 344 Z Z" stroke-miterlimit="10"/></g><g transform="translate(-110,-190) scale(1,1)"><path fill="none" stroke="#000000" d="M 336 369 L 423.03173828125 369" stroke-miterlimit="10"/></g><g transform="translate(-110,-190) scale(1,1)"><path fill="none" stroke="#000000" d="M 336 407 L 423.03173828125 407" stroke-miterlimit="10"/></g><g transform="translate(-110,-190) scale(1,1)"><g><path fill="none" stroke="none"/><text fill="#000000" stroke="none" font-family="Arial" font-size="13px" font-style="normal" font-weight="bold" text-decoration="none" x="360.72998046875" y="361.53857421875">Genre</text></g></g><g transform="translate(-110,-190) scale(1,1)"><g><path fill="none" stroke="none"/><text fill="#000000" stroke="none" font-family="Arial" font-size="13px" font-style="normal" font-weight="normal" text-decoration="none" x="341" y="384.7099609375">-id: ObjectId</text></g></g><g transform="translate(-110,-190) scale(1,1)"><g><path fill="none" stroke="none"/><text fill="#000000" stroke="none" font-family="Arial" font-size="13px" font-style="normal" font-weight="normal" text-decoration="none" x="341" y="399.7099609375">-name: String</text></g></g><g transform="translate(-110,-190) scale(1,1)"><path fill="none" stroke="#000000" d="M 504 280 L 384 280 L 384 344" stroke-miterlimit="10"/></g><g transform="translate(-110,-190) scale(1,1)"><path fill="none" stroke="#000000" d="M 379.790482243984 333.83732514237585 L 384 344 L 388.209517756016 333.83732514237585" stroke-miterlimit="10"/></g><g transform="translate(-110,-190) scale(1,1)"><g><path fill="none" stroke="none"/><text fill="#000000" stroke="none" font-family="Arial" font-size="13px" font-style="normal" font-weight="normal" text-decoration="none" x="392.13134765625" y="328.49755859375">-genres</text></g></g><g transform="translate(-110,-190) scale(1,1)"><g><path fill="none" stroke="none"/><text fill="#000000" stroke="none" font-family="Arial" font-size="13px" font-style="normal" font-weight="normal" text-decoration="none" x="361.5" y="326.53857421875">0..*</text></g></g><g transform="translate(-110,-190) scale(1,1)"><path fill="none" stroke="#000000" d="M 188 307 L 188 384 L 336 384" stroke-miterlimit="10"/></g><g transform="translate(-110,-190) scale(1,1)"><path fill="none" stroke="#000000" d="M 325.83732514237585 388.209517756016 L 336 384 L 325.83732514237585 379.790482243984" stroke-miterlimit="10"/></g><g transform="translate(-110,-190) scale(1,1)"><g><path fill="none" stroke="none"/><text fill="#000000" stroke="none" font-family="Arial" font-size="13px" font-style="normal" font-weight="normal" text-decoration="none" x="281.13134765625" y="371.49755859375">-genres</text></g></g><g transform="translate(-110,-190) scale(1,1)"><g><path fill="none" stroke="none"/><text fill="#000000" stroke="none" font-family="Arial" font-size="13px" font-style="normal" font-weight="normal" text-decoration="none" x="304.5" y="400.53857421875">0..*</text></g></g><g transform="translate(-110,-190) scale(1,1)"><path fill="none" stroke="#000000" d="M 242 488 L 379 488 L 379 416" stroke-miterlimit="10"/></g><g transform="translate(-110,-190) scale(1,1)"><path fill="none" stroke="#000000" d="M 383.209517756016 426.16267485762415 L 379 416 L 374.790482243984 426.16267485762415" stroke-miterlimit="10"/></g><g transform="translate(-110,-190) scale(1,1)"><g><path fill="none" stroke="none"/><text fill="#000000" stroke="none" font-family="Arial" font-size="13px" font-style="normal" font-weight="normal" text-decoration="none" x="320.13134765625" y="440.49755859375">-genres</text></g></g><g transform="translate(-110,-190) scale(1,1)"><g><path fill="none" stroke="none"/><text fill="#000000" stroke="none" font-family="Arial" font-size="13px" font-style="normal" font-weight="normal" text-decoration="none" x="381.5" y="441.53857421875">0..*</text></g></g></g></svg>