<svg version="1.1" xmlns="http://www.w3.org/2000/svg" xmlns:xlink="http://www.w3.org/1999/xlink" width="652.642578125" height="322"><defs/><g><text fill="#eeeeee" stroke="none" font-family="Arial" font-size="24px" font-style="normal" font-weight="normal" text-decoration="none" x="0" y="0">UNREGISTERED</text><text fill="#eeeeee" stroke="none" font-family="Arial" font-size="24px" font-style="normal" font-weight="normal" text-decoration="none" x="0" y="30">UNREGISTERED</text><text fill="#eeeeee" stroke="none" font-family="Arial" font-size="24px" font-style="normal" font-weight="normal" text-decoration="none" x="0" y="60">UNREGISTERED</text><text fill="#eeeeee" stroke="none" font-family="Arial" font-size="24px" font-style="normal" font-weight="normal" text-decoration="none" x="0" y="90">UNREGISTERED</text><text fill="#eeeeee" stroke="none" font-family="Arial" font-size="24px" font-style="normal" font-weight="normal" text-decoration="none" x="0" y="120">UNREGISTERED</text><text fill="#eeeeee" stroke="none" font-family="Arial" font-size="24px" font-style="normal" font-weight="normal" text-decoration="none" x="0" y="150">UNREGISTERED</text><text fill="#eeeeee" stroke="none" font-family="Arial" font-size="24px" font-style="normal" font-weight="normal" text-decoration="none" x="0" y="180">UNREGISTERED</text><text fill="#eeeeee" stroke="none" font-family="Arial" font-size="24px" font-style="normal" font-weight="normal" text-decoration="none" x="0" y="210">UNREGISTERED</text><text fill="#eeeeee" stroke="none" font-family="Arial" font-size="24px" font-style="normal" font-weight="normal" text-decoration="none" x="0" y="240">UNREGISTERED</text><text fill="#eeeeee" stroke="none" font-family="Arial" font-size="24px" font-style="normal" font-weight="normal" text-decoration="none" x="0" y="270">UNREGISTERED</text><text fill="#eeeeee" stroke="none" font-family="Arial" font-size="24px" font-style="normal" font-weight="normal" text-decoration="none" x="0" y="300">UNREGISTERED</text><text fill="#eeeeee" stroke="none" font-family="Arial" font-size="24px" font-style="normal" font-weight="normal" text-decoration="none" x="200" y="0">UNREGISTERED</text><text fill="#eeeeee" stroke="none" font-family="Arial" font-size="24px" font-style="normal" font-weight="normal" text-decoration="none" x="200" y="30">UNREGISTERED</text><text fill="#eeeeee" stroke="none" font-family="Arial" font-size="24px" font-style="normal" font-weight="normal" text-decoration="none" x="200" y="60">UNREGISTERED</text><text fill="#eeeeee" stroke="none" font-family="Arial" font-size="24px" font-style="normal" font-weight="normal" text-decoration="none" x="200" y="90">UNREGISTERED</text><text fill="#eeeeee" stroke="none" font-family="Arial" font-size="24px" font-style="normal" font-weight="normal" text-decoration="none" x="200" y="120">UNREGISTERED</text><text fill="#eeeeee" stroke="none" font-family="Arial" font-size="24px" font-style="normal" font-weight="normal" text-decoration="none" x="200" y="150">UNREGISTERED</text><text fill="#eeeeee" stroke="none" font-family="Arial" font-size="24px" font-style="normal" font-weight="normal" text-decoration="none" x="200" y="180">UNREGISTERED</text><text fill="#eeeeee" stroke="none" font-family="Arial" font-size="24px" font-style="normal" font-weight="normal" text-decoration="none" x="200" y="210">UNREGISTERED</text><text fill="#eeeeee" stroke="none" font-family="Arial" font-size="24px" font-style="normal" font-weight="normal" text-decoration="none" x="200" y="240">UNREGISTERED</text><text fill="#eeeeee" stroke="none" font-family="Arial" font-size="24px" font-style="normal" font-weight="normal" text-decoration="none" x="200" y="270">UNREGISTERED</text><text fill="#eeeeee" stroke="none" font-family="Arial" font-size="24px" font-style="normal" font-weight="normal" text-decoration="none" x="200" y="300">UNREGISTERED</text><text fill="#eeeeee" stroke="none" font-family="Arial" font-size="24px" font-style="normal" font-weight="normal" text-decoration="none" x="400" y="0">UNREGISTERED</text><text fill="#eeeeee" stroke="none" font-family="Arial" font-size="24px" font-style="normal" font-weight="normal" text-decoration="none" x="400" y="30">UNREGISTERED</text><text fill="#eeeeee" stroke="none" font-family="Arial" font-size="24px" font-style="normal" font-weight="normal" text-decoration="none" x="400" y="60">UNREGISTERED</text><text fill="#eeeeee" stroke="none" font-family="Arial" font-size="24px" font-style="normal" font-weight="normal" text-decoration="none" x="400" y="90">UNREGISTERED</text><text fill="#eeeeee" stroke="none" font-family="Arial" font-size="24px" font-style="normal" font-weight="normal" text-decoration="none" x="400" y="120">UNREGISTERED</text><text fill="#eeeeee" stroke="none" font-family="Arial" font-size="24px" font-style="normal" font-weight="normal" text-decoration="none" x="400" y="150">UNREGISTERED</text><text fill="#eeeeee" stroke="none" font-family="Arial" font-size="24px" font-style="normal" font-weight="normal" text-decoration="none" x="400" y="180">UNREGISTERED</text><text fill="#eeeeee" stroke="none" font-family="Arial" font-size="24px" font-style="normal" font-weight="normal" text-decoration="none" x="400" y="210">UNREGISTERED</text><text fill="#eeeeee" stroke="none" font-family="Arial" font-size="24px" font-style="normal" font-weight="normal" text-decoration="none" x="400" y="240">UNREGISTERED</text><text fill="#eeeeee" stroke="none" font-family="Arial" font-size="24px" font-style="normal" font-weight="normal" text-decoration="none" x="400" y="270">UNREGISTERED</text><text fill="#eeeeee" stroke="none" font-family="Arial" font-size="24px" font-style="normal" font-weight="normal" text-decoration="none" x="400" y="300">UNREGISTERED</text><text fill="#eeeeee" stroke="none" font-family="Arial" font-size="24px" font-style="normal" font-weight="normal" text-decoration="none" x="600" y="0">UNREGISTERED</text><text fill="#eeeeee" stroke="none" font-family="Arial" font-size="24px" font-style="normal" font-weight="normal" text-decoration="none" x="600" y="30">UNREGISTERED</text><text fill="#eeeeee" stroke="none" font-family="Arial" font-size="24px" font-style="normal" font-weight="normal" text-decoration="none" x="600" y="60">UNREGISTERED</text><text fill="#eeeeee" stroke="none" font-family="Arial" font-size="24px" font-style="normal" font-weight="normal" text-decoration="none" x="600" y="90">UNREGISTERED</text><text fill="#eeeeee" stroke="none" font-family="Arial" font-size="24px" font-style="normal" font-weight="normal" text-decoration="none" x="600" y="120">UNREGISTERED</text><text fill="#eeeeee" stroke="none" font-family="Arial" font-size="24px" font-style="normal" font-weight="normal" text-decoration="none" x="600" y="150">UNREGISTERED</text><text fill="#eeeeee" stroke="none" font-family="Arial" font-size="24px" font-style="normal" font-weight="normal" text-decoration="none" x="600" y="180">UNREGISTERED</text><text fill="#eeeeee" stroke="none" font-family="Arial" font-size="24px" font-style="normal" font-weight="normal" text-decoration="none" x="600" y="210">UNREGISTERED</text><text fill="#eeeeee" stroke="none" font-family="Arial" font-size="24px" font-style="normal" font-weight="normal" text-decoration="none" x="600" y="240">UNREGISTERED</text><text fill="#eeeeee" stroke="none" font-family="Arial" font-size="24px" font-style="normal" font-weight="normal" text-decoration="none" x="600" y="270">UNREGISTERED</text><text fill="#eeeeee" stroke="none" font-family="Arial" font-size="24px" font-style="normal" font-weight="normal" text-decoration="none" x="600" y="300">UNREGISTERED</text><g transform="translate(-78,-102) scale(1,1)"><rect fill="#C0C0C0" stroke="none" x="351" y="127" width="72.2353515625" height="57" opacity="0.2"/></g><g transform="translate(-78,-102) scale(1,1)"><rect fill="#ffffff" stroke="none" x="344" y="120" width="72.2353515625" height="57"/></g><g transform="translate(-78,-102) scale(1,1)"><path fill="none" stroke="#000000" d="M 344 120 L 416.2353515625 120 L 416.2353515625 177 L 344 177 L 344 120 Z Z" stroke-miterlimit="10"/></g><g transform="translate(-78,-102) scale(1,1)"><path fill="none" stroke="#000000" d="M 344 145 L 416.2353515625 145" stroke-miterlimit="10"/></g><g transform="translate(-78,-102) scale(1,1)"><path fill="none" stroke="#000000" d="M 344 168 L 416.2353515625 168" stroke-miterlimit="10"/></g><g transform="translate(-78,-102) scale(1,1)"><g><path fill="none" stroke="none"/><text fill="#000000" stroke="none" font-family="Arial" font-size="13px" font-style="normal" font-weight="bold" text-decoration="none" x="354.114501953125" y="137.7099609375">ObjectId</text></g></g><g transform="translate(-78,-102) scale(1,1)"><g><path fill="none" stroke="none"/><text fill="#000000" stroke="none" font-family="Arial" font-size="13px" font-style="normal" font-weight="normal" text-decoration="none" x="349" y="160.7099609375">+_id</text></g></g><g transform="translate(-78,-102) scale(1,1)"><rect fill="#C0C0C0" stroke="none" x="95" y="271" width="115.58349609375" height="72" opacity="0.2"/></g><g transform="translate(-78,-102) scale(1,1)"><rect fill="#ffffff" stroke="none" x="88" y="264" width="115.58349609375" height="72"/></g><g transform="translate(-78,-102) scale(1,1)"><path fill="none" stroke="#000000" d="M 88 264 L 203.58349609375 264 L 203.58349609375 336 L 88 336 L 88 264 Z Z" stroke-miterlimit="10"/></g><g transform="translate(-78,-102) scale(1,1)"><path fill="none" stroke="#000000" d="M 88 289 L 203.58349609375 289" stroke-miterlimit="10"/></g><g transform="translate(-78,-102) scale(1,1)"><path fill="none" stroke="#000000" d="M 88 327 L 203.58349609375 327" stroke-miterlimit="10"/></g><g transform="translate(-78,-102) scale(1,1)"><g><path fill="none" stroke="none"/><text fill="#000000" stroke="none" font-family="Arial" font-size="13px" font-style="normal" font-weight="bold" text-decoration="none" x="131.338134765625" y="281.471923828125">User</text></g></g><g transform="translate(-78,-102) scale(1,1)"><g><path fill="none" stroke="none"/><text fill="#000000" stroke="none" font-family="Arial" font-size="13px" font-style="normal" font-weight="normal" text-decoration="none" x="93" y="304.7099609375">+username: String</text></g></g><g transform="translate(-78,-102) scale(1,1)"><g><path fill="none" stroke="none"/><text fill="#000000" stroke="none" font-family="Arial" font-size="13px" font-style="normal" font-weight="normal" text-decoration="none" x="93" y="319.7099609375">+password: String</text></g></g><g transform="translate(-78,-102) scale(1,1)"><rect fill="#C0C0C0" stroke="none" x="607" y="327" width="120.642578125" height="87" opacity="0.2"/></g><g transform="translate(-78,-102) scale(1,1)"><rect fill="#ffffff" stroke="none" x="600" y="320" width="120.642578125" height="87"/></g><g transform="translate(-78,-102) scale(1,1)"><path fill="none" stroke="#000000" d="M 600 320 L 720.642578125 320 L 720.642578125 407 L 600 407 L 600 320 Z Z" stroke-miterlimit="10"/></g><g transform="translate(-78,-102) scale(1,1)"><path fill="none" stroke="#000000" d="M 600 345 L 720.642578125 345" stroke-miterlimit="10"/></g><g transform="translate(-78,-102) scale(1,1)"><path fill="none" stroke="#000000" d="M 600 398 L 720.642578125 398" stroke-miterlimit="10"/></g><g transform="translate(-78,-102) scale(1,1)"><g><path fill="none" stroke="none"/><text fill="#000000" stroke="none" font-family="Arial" font-size="13px" font-style="normal" font-weight="bold" text-decoration="none" x="640.100830078125" y="337.7099609375">Album</text></g></g><g transform="translate(-78,-102) scale(1,1)"><g><path fill="none" stroke="none"/><text fill="#000000" stroke="none" font-family="Arial" font-size="13px" font-style="normal" font-weight="normal" text-decoration="none" x="605" y="360.7099609375">+name: String</text></g></g><g transform="translate(-78,-102) scale(1,1)"><g><path fill="none" stroke="none"/><text fill="#000000" stroke="none" font-family="Arial" font-size="13px" font-style="normal" font-weight="normal" text-decoration="none" x="605" y="375.53857421875">+cover: Base64</text></g></g><g transform="translate(-78,-102) scale(1,1)"><g><path fill="none" stroke="none"/><text fill="#000000" stroke="none" font-family="Arial" font-size="13px" font-style="normal" font-weight="normal" text-decoration="none" x="605" y="390.7099609375">+description: String</text></g></g><g transform="translate(-78,-102) scale(1,1)"><path fill="none" stroke="#000000" d="M 202 263 L 343 172" stroke-miterlimit="10"/></g><g transform="translate(-78,-102) scale(1,1)"><path fill="#FFFFFF" stroke="none" d="M 330.48778482617746 190.09542681021824 L 343 172 L 321.35712879695467 175.94792680889503"/></g><g transform="translate(-78,-102) scale(1,1)"><path fill="none" stroke="#000000" d="M 330.48778482617746 190.09542681021824 L 343 172 L 321.35712879695467 175.94792680889503 L 330.48778482617746 190.09542681021824" stroke-miterlimit="10"/></g><g transform="translate(-78,-102) scale(1,1)"><rect fill="#C0C0C0" stroke="none" x="607" y="119" width="117.03076171875" height="72" opacity="0.2"/></g><g transform="translate(-78,-102) scale(1,1)"><rect fill="#ffffff" stroke="none" x="600" y="112" width="117.03076171875" height="72"/></g><g transform="translate(-78,-102) scale(1,1)"><path fill="none" stroke="#000000" d="M 600 112 L 717.03076171875 112 L 717.03076171875 184 L 600 184 L 600 112 Z Z" stroke-miterlimit="10"/></g><g transform="translate(-78,-102) scale(1,1)"><path fill="none" stroke="#000000" d="M 600 137 L 717.03076171875 137" stroke-miterlimit="10"/></g><g transform="translate(-78,-102) scale(1,1)"><path fill="none" stroke="#000000" d="M 600 175 L 717.03076171875 175" stroke-miterlimit="10"/></g><g transform="translate(-78,-102) scale(1,1)"><g><path fill="none" stroke="none"/><text fill="#000000" stroke="none" font-family="Arial" font-size="13px" font-style="normal" font-weight="bold" text-decoration="none" x="642.2685546875" y="129.53857421875">Song</text></g></g><g transform="translate(-78,-102) scale(1,1)"><g><path fill="none" stroke="none"/><text fill="#000000" stroke="none" font-family="Arial" font-size="13px" font-style="normal" font-weight="normal" text-decoration="none" x="605" y="152.7099609375">+name: String</text></g></g><g transform="translate(-78,-102) scale(1,1)"><g><path fill="none" stroke="none"/><text fill="#000000" stroke="none" font-family="Arial" font-size="13px" font-style="normal" font-weight="normal" text-decoration="none" x="605" y="167.7099609375">+duration: Number</text></g></g><g transform="translate(-78,-102) scale(1,1)"><path fill="none" stroke="#000000" d="M 599 148 L 417 148" stroke-miterlimit="10"/></g><g transform="translate(-78,-102) scale(1,1)"><path fill="#FFFFFF" stroke="none" d="M 437.3253497152483 139.58096448796803 L 417 148 L 437.3253497152483 156.41903551203197"/></g><g transform="translate(-78,-102) scale(1,1)"><path fill="none" stroke="#000000" d="M 437.3253497152483 139.58096448796803 L 417 148 L 437.3253497152483 156.41903551203197 L 437.3253497152483 139.58096448796803" stroke-miterlimit="10"/></g><g transform="translate(-78,-102) scale(1,1)"><path fill="none" stroke="#000000" d="M 660 319 L 658 185" stroke-miterlimit="10"/></g><g transform="translate(-78,-102) scale(1,1)"><path fill="none" stroke="#000000" d="M 662.3607137863082 195.09872146728986 L 658 185 L 653.9426158582773 195.22436471994706" stroke-miterlimit="10"/></g><g transform="translate(-78,-102) scale(1,1)"><g><path fill="none" stroke="none"/><text fill="#000000" stroke="none" font-family="Arial" font-size="13px" font-style="normal" font-weight="normal" text-decoration="none" x="660.5" y="210.53857421875">0..*</text></g></g><g transform="translate(-78,-102) scale(1,1)"><rect fill="#C0C0C0" stroke="none" x="319" y="319" width="139.431640625" height="102" opacity="0.2"/></g><g transform="translate(-78,-102) scale(1,1)"><rect fill="#ffffff" stroke="none" x="312" y="312" width="139.431640625" height="102"/></g><g transform="translate(-78,-102) scale(1,1)"><path fill="none" stroke="#000000" d="M 312 312 L 451.431640625 312 L 451.431640625 414 L 312 414 L 312 312 Z Z" stroke-miterlimit="10"/></g><g transform="translate(-78,-102) scale(1,1)"><path fill="none" stroke="#000000" d="M 312 337 L 451.431640625 337" stroke-miterlimit="10"/></g><g transform="translate(-78,-102) scale(1,1)"><path fill="none" stroke="#000000" d="M 312 405 L 451.431640625 405" stroke-miterlimit="10"/></g><g transform="translate(-78,-102) scale(1,1)"><g><path fill="none" stroke="none"/><text fill="#000000" stroke="none" font-family="Arial" font-size="13px" font-style="normal" font-weight="bold" text-decoration="none" x="364.7421875" y="329.7099609375">Artist</text></g></g><g transform="translate(-78,-102) scale(1,1)"><g><path fill="none" stroke="none"/><text fill="#000000" stroke="none" font-family="Arial" font-size="13px" font-style="normal" font-weight="normal" text-decoration="none" x="317" y="352.7099609375">+name: String</text></g></g><g transform="translate(-78,-102) scale(1,1)"><g><path fill="none" stroke="none"/><text fill="#000000" stroke="none" font-family="Arial" font-size="13px" font-style="normal" font-weight="normal" text-decoration="none" x="317" y="367.53857421875">+cover: Base64</text></g></g><g transform="translate(-78,-102) scale(1,1)"><g><path fill="none" stroke="none"/><text fill="#000000" stroke="none" font-family="Arial" font-size="13px" font-style="normal" font-weight="normal" text-decoration="none" x="317" y="382.7099609375">+description: String</text></g></g><g transform="translate(-78,-102) scale(1,1)"><g><path fill="none" stroke="none"/><text fill="#000000" stroke="none" font-family="Arial" font-size="13px" font-style="normal" font-weight="normal" text-decoration="none" x="317" y="397.7099609375">+origin_country: String</text></g></g><g transform="translate(-78,-102) scale(1,1)"><path fill="none" stroke="#000000" d="M 599 363 L 452 363" stroke-miterlimit="10"/></g><g transform="translate(-78,-102) scale(1,1)"><path fill="none" stroke="#000000" d="M 462.16267485762415 358.790482243984 L 452 363 L 462.16267485762415 367.209517756016" stroke-miterlimit="10"/></g><g transform="translate(-78,-102) scale(1,1)"><g><path fill="none" stroke="none"/><text fill="#000000" stroke="none" font-family="Arial" font-size="13px" font-style="normal" font-weight="normal" text-decoration="none" x="462.5" y="354.53857421875">0..1</text></g></g><g transform="translate(-78,-102) scale(1,1)"><path fill="none" stroke="#000000" d="M 381 311 L 380 178" stroke-miterlimit="10"/></g><g transform="translate(-78,-102) scale(1,1)"><path fill="#FFFFFF" stroke="none" d="M 388.57161540716424 198.26147599045206 L 380 178 L 371.73402031043184 198.38807444982598"/></g><g transform="translate(-78,-102) scale(1,1)"><path fill="none" stroke="#000000" d="M 388.57161540716424 198.26147599045206 L 380 178 L 371.73402031043184 198.38807444982598 L 388.57161540716424 198.26147599045206" stroke-miterlimit="10"/></g><g transform="translate(-78,-102) scale(1,1)"><path fill="none" stroke="#000000" d="M 603 319 L 417 177" stroke-miterlimit="10"/></g><g transform="translate(-78,-102) scale(1,1)"><path fill="#FFFFFF" stroke="none" d="M 438.2642578943155 182.64192663937067 L 417 177 L 428.0466563683141 196.0255455396261"/></g><g transform="translate(-78,-102) scale(1,1)"><path fill="none" stroke="#000000" d="M 438.2642578943155 182.64192663937067 L 417 177 L 428.0466563683141 196.0255455396261 L 438.2642578943155 182.64192663937067" stroke-miterlimit="10"/></g></g></svg>