<svg version="1.1" xmlns="http://www.w3.org/2000/svg" xmlns:xlink="http://www.w3.org/1999/xlink" width="679.58349609375" height="421"><defs/><g><text fill="#eeeeee" stroke="none" font-family="Arial" font-size="24px" font-style="normal" font-weight="normal" text-decoration="none" x="0" y="0"></text><text fill="#eeeeee" stroke="none" font-family="Arial" font-size="24px" font-style="normal" font-weight="normal" text-decoration="none" x="0" y="30"></text><text fill="#eeeeee" stroke="none" font-family="Arial" font-size="24px" font-style="normal" font-weight="normal" text-decoration="none" x="0" y="60"></text><text fill="#eeeeee" stroke="none" font-family="Arial" font-size="24px" font-style="normal" font-weight="normal" text-decoration="none" x="0" y="90"></text><text fill="#eeeeee" stroke="none" font-family="Arial" font-size="24px" font-style="normal" font-weight="normal" text-decoration="none" x="0" y="120"></text><text fill="#eeeeee" stroke="none" font-family="Arial" font-size="24px" font-style="normal" font-weight="normal" text-decoration="none" x="0" y="150"></text><text fill="#eeeeee" stroke="none" font-family="Arial" font-size="24px" font-style="normal" font-weight="normal" text-decoration="none" x="0" y="180"></text><text fill="#eeeeee" stroke="none" font-family="Arial" font-size="24px" font-style="normal" font-weight="normal" text-decoration="none" x="0" y="210"></text><text fill="#eeeeee" stroke="none" font-family="Arial" font-size="24px" font-style="normal" font-weight="normal" text-decoration="none" x="0" y="240"></text><text fill="#eeeeee" stroke="none" font-family="Arial" font-size="24px" font-style="normal" font-weight="normal" text-decoration="none" x="0" y="270"></text><text fill="#eeeeee" stroke="none" font-family="Arial" font-size="24px" font-style="normal" font-weight="normal" text-decoration="none" x="0" y="300"></text><text fill="#eeeeee" stroke="none" font-family="Arial" font-size="24px" font-style="normal" font-weight="normal" text-decoration="none" x="0" y="330"></text><text fill="#eeeeee" stroke="none" font-family="Arial" font-size="24px" font-style="normal" font-weight="normal" text-decoration="none" x="0" y="360"></text><text fill="#eeeeee" stroke="none" font-family="Arial" font-size="24px" font-style="normal" font-weight="normal" text-decoration="none" x="0" y="390"></text><text fill="#eeeeee" stroke="none" font-family="Arial" font-size="24px" font-style="normal" font-weight="normal" text-decoration="none" x="0" y="420"></text><text fill="#eeeeee" stroke="none" font-family="Arial" font-size="24px" font-style="normal" font-weight="normal" text-decoration="none" x="200" y="0"></text><text fill="#eeeeee" stroke="none" font-family="Arial" font-size="24px" font-style="normal" font-weight="normal" text-decoration="none" x="200" y="30"></text><text fill="#eeeeee" stroke="none" font-family="Arial" font-size="24px" font-style="normal" font-weight="normal" text-decoration="none" x="200" y="60"></text><text fill="#eeeeee" stroke="none" font-family="Arial" font-size="24px" font-style="normal" font-weight="normal" text-decoration="none" x="200" y="90"></text><text fill="#eeeeee" stroke="none" font-family="Arial" font-size="24px" font-style="normal" font-weight="normal" text-decoration="none" x="200" y="120"></text><text fill="#eeeeee" stroke="none" font-family="Arial" font-size="24px" font-style="normal" font-weight="normal" text-decoration="none" x="200" y="150"></text><text fill="#eeeeee" stroke="none" font-family="Arial" font-size="24px" font-style="normal" font-weight="normal" text-decoration="none" x="200" y="180"></text><text fill="#eeeeee" stroke="none" font-family="Arial" font-size="24px" font-style="normal" font-weight="normal" text-decoration="none" x="200" y="210"></text><text fill="#eeeeee" stroke="none" font-family="Arial" font-size="24px" font-style="normal" font-weight="normal" text-decoration="none" x="200" y="240"></text><text fill="#eeeeee" stroke="none" font-family="Arial" font-size="24px" font-style="normal" font-weight="normal" text-decoration="none" x="200" y="270"></text><text fill="#eeeeee" stroke="none" font-family="Arial" font-size="24px" font-style="normal" font-weight="normal" text-decoration="none" x="200" y="300"></text><text fill="#eeeeee" stroke="none" font-family="Arial" font-size="24px" font-style="normal" font-weight="normal" text-decoration="none" x="200" y="330"></text><text fill="#eeeeee" stroke="none" font-family="Arial" font-size="24px" font-style="normal" font-weight="normal" text-decoration="none" x="200" y="360"></text><text fill="#eeeeee" stroke="none" font-family="Arial" font-size="24px" font-style="normal" font-weight="normal" text-decoration="none" x="200" y="390"></text><text fill="#eeeeee" stroke="none" font-family="Arial" font-size="24px" font-style="normal" font-weight="normal" text-decoration="none" x="200" y="420"></text><text fill="#eeeeee" stroke="none" font-family="Arial" font-size="24px" font-style="normal" font-weight="normal" text-decoration="none" x="400" y="0"></text><text fill="#eeeeee" stroke="none" font-family="Arial" font-size="24px" font-style="normal" font-weight="normal" text-decoration="none" x="400" y="30"></text><text fill="#eeeeee" stroke="none" font-family="Arial" font-size="24px" font-style="normal" font-weight="normal" text-decoration="none" x="400" y="60"></text><text fill="#eeeeee" stroke="none" font-family="Arial" font-size="24px" font-style="normal" font-weight="normal" text-decoration="none" x="400" y="90"></text><text fill="#eeeeee" stroke="none" font-family="Arial" font-size="24px" font-style="normal" font-weight="normal" text-decoration="none" x="400" y="120"></text><text fill="#eeeeee" stroke="none" font-family="Arial" font-size="24px" font-style="normal" font-weight="normal" text-decoration="none" x="400" y="150"></text><text fill="#eeeeee" stroke="none" font-family="Arial" font-size="24px" font-style="normal" font-weight="normal" text-decoration="none" x="400" y="180"></text><text fill="#eeeeee" stroke="none" font-family="Arial" font-size="24px" font-style="normal" font-weight="normal" text-decoration="none" x="400" y="210"></text><text fill="#eeeeee" stroke="none" font-family="Arial" font-size="24px" font-style="normal" font-weight="normal" text-decoration="none" x="400" y="240"></text><text fill="#eeeeee" stroke="none" font-family="Arial" font-size="24px" font-style="normal" font-weight="normal" text-decoration="none" x="400" y="270"></text><text fill="#eeeeee" stroke="none" font-family="Arial" font-size="24px" font-style="normal" font-weight="normal" text-decoration="none" x="400" y="300"></text><text fill="#eeeeee" stroke="none" font-family="Arial" font-size="24px" font-style="normal" font-weight="normal" text-decoration="none" x="400" y="330"></text><text fill="#eeeeee" stroke="none" font-family="Arial" font-size="24px" font-style="normal" font-weight="normal" text-decoration="none" x="400" y="360"></text><text fill="#eeeeee" stroke="none" font-family="Arial" font-size="24px" font-style="normal" font-weight="normal" text-decoration="none" x="400" y="390"></text><text fill="#eeeeee" stroke="none" font-family="Arial" font-size="24px" font-style="normal" font-weight="normal" text-decoration="none" x="400" y="420"></text><text fill="#eeeeee" stroke="none" font-family="Arial" font-size="24px" font-style="normal" font-weight="normal" text-decoration="none" x="600" y="0"></text><text fill="#eeeeee" stroke="none" font-family="Arial" font-size="24px" font-style="normal" font-weight="normal" text-decoration="none" x="600" y="30"></text><text fill="#eeeeee" stroke="none" font-family="Arial" font-size="24px" font-style="normal" font-weight="normal" text-decoration="none" x="600" y="60"></text><text fill="#eeeeee" stroke="none" font-family="Arial" font-size="24px" font-style="normal" font-weight="normal" text-decoration="none" x="600" y="90"></text><text fill="#eeeeee" stroke="none" font-family="Arial" font-size="24px" font-style="normal" font-weight="normal" text-decoration="none" x="600" y="120"></text><text fill="#eeeeee" stroke="none" font-family="Arial" font-size="24px" font-style="normal" font-weight="normal" text-decoration="none" x="600" y="150"></text><text fill="#eeeeee" stroke="none" font-family="Arial" font-size="24px" font-style="normal" font-weight="normal" text-decoration="none" x="600" y="180"></text><text fill="#eeeeee" stroke="none" font-family="Arial" font-size="24px" font-style="normal" font-weight="normal" text-decoration="none" x="600" y="210"></text><text fill="#eeeeee" stroke="none" font-family="Arial" font-size="24px" font-style="normal" font-weight="normal" text-decoration="none" x="600" y="240"></text><text fill="#eeeeee" stroke="none" font-family="Arial" font-size="24px" font-style="normal" font-weight="normal" text-decoration="none" x="600" y="270"></text><text fill="#eeeeee" stroke="none" font-family="Arial" font-size="24px" font-style="normal" font-weight="normal" text-decoration="none" x="600" y="300"></text><text fill="#eeeeee" stroke="none" font-family="Arial" font-size="24px" font-style="normal" font-weight="normal" text-decoration="none" x="600" y="330"></text><text fill="#eeeeee" stroke="none" font-family="Arial" font-size="24px" font-style="normal" font-weight="normal" text-decoration="none" x="600" y="360"></text><text fill="#eeeeee" stroke="none" font-family="Arial" font-size="24px" font-style="normal" font-weight="normal" text-decoration="none" x="600" y="390"></text><text fill="#eeeeee" stroke="none" font-family="Arial" font-size="24px" font-style="normal" font-weight="normal" text-decoration="none" x="600" y="420"></text><g transform="translate(-374,-206) scale(1,1)"><rect fill="#C0C0C0" stroke="none" x="935" y="359" width="115.58349609375" height="72" opacity="0.2"/></g><g transform="translate(-374,-206) scale(1,1)"><rect fill="#ffffff" stroke="none" x="928" y="352" width="115.58349609375" height="72"/></g><g transform="translate(-374,-206) scale(1,1)"><path fill="none" stroke="#000000" d="M 928 352 L 1043.58349609375 352 L 1043.58349609375 424 L 928 424 L 928 352 Z Z" stroke-miterlimit="10"/></g><g transform="translate(-374,-206) scale(1,1)"><path fill="none" stroke="#000000" d="M 928 377 L 1043.58349609375 377" stroke-miterlimit="10"/></g><g transform="translate(-374,-206) scale(1,1)"><path fill="none" stroke="#000000" d="M 928 415 L 1043.58349609375 415" stroke-miterlimit="10"/></g><g transform="translate(-374,-206) scale(1,1)"><g><path fill="none" stroke="none"/><text fill="#000000" stroke="none" font-family="Arial" font-size="13px" font-style="normal" font-weight="bold" text-decoration="none" x="971.338134765625" y="369.471923828125">User</text></g></g><g transform="translate(-374,-206) scale(1,1)"><g><path fill="none" stroke="none"/><text fill="#000000" stroke="none" font-family="Arial" font-size="13px" font-style="normal" font-weight="normal" text-decoration="none" x="933" y="392.7099609375">+username: String</text></g></g><g transform="translate(-374,-206) scale(1,1)"><g><path fill="none" stroke="none"/><text fill="#000000" stroke="none" font-family="Arial" font-size="13px" font-style="normal" font-weight="normal" text-decoration="none" x="933" y="407.7099609375">+password: String</text></g></g><g transform="translate(-374,-206) scale(1,1)"><rect fill="#C0C0C0" stroke="none" x="607" y="487" width="120.642578125" height="102" opacity="0.2"/></g><g transform="translate(-374,-206) scale(1,1)"><rect fill="#ffffff" stroke="none" x="600" y="480" width="120.642578125" height="102"/></g><g transform="translate(-374,-206) scale(1,1)"><path fill="none" stroke="#000000" d="M 600 480 L 720.642578125 480 L 720.642578125 582 L 600 582 L 600 480 Z Z" stroke-miterlimit="10"/></g><g transform="translate(-374,-206) scale(1,1)"><path fill="none" stroke="#000000" d="M 600 505 L 720.642578125 505" stroke-miterlimit="10"/></g><g transform="translate(-374,-206) scale(1,1)"><path fill="none" stroke="#000000" d="M 600 573 L 720.642578125 573" stroke-miterlimit="10"/></g><g transform="translate(-374,-206) scale(1,1)"><g><path fill="none" stroke="none"/><text fill="#000000" stroke="none" font-family="Arial" font-size="13px" font-style="normal" font-weight="bold" text-decoration="none" x="617.338134765625" y="497.7099609375">AlbumPlaylist</text></g></g><g transform="translate(-374,-206) scale(1,1)"><g><path fill="none" stroke="none"/><text fill="#000000" stroke="none" font-family="Arial" font-size="13px" font-style="normal" font-weight="normal" text-decoration="none" x="605" y="520.7099609375">+name: String</text></g></g><g transform="translate(-374,-206) scale(1,1)"><g><path fill="none" stroke="none"/><text fill="#000000" stroke="none" font-family="Arial" font-size="13px" font-style="normal" font-weight="normal" text-decoration="none" x="605" y="535.53857421875">+cover: Base64</text></g></g><g transform="translate(-374,-206) scale(1,1)"><g><path fill="none" stroke="none"/><text fill="#000000" stroke="none" font-family="Arial" font-size="13px" font-style="normal" font-weight="normal" text-decoration="none" x="605" y="550.7099609375">+description: String</text></g></g><g transform="translate(-374,-206) scale(1,1)"><g><path fill="none" stroke="none"/><text fill="#000000" stroke="none" font-family="Arial" font-size="13px" font-style="normal" font-weight="normal" text-decoration="none" x="605" y="565.7099609375">+genres: String[]</text></g></g><g transform="translate(-374,-206) scale(1,1)"><rect fill="#C0C0C0" stroke="none" x="767" y="343" width="117.03076171875" height="87" opacity="0.2"/></g><g transform="translate(-374,-206) scale(1,1)"><rect fill="#ffffff" stroke="none" x="760" y="336" width="117.03076171875" height="87"/></g><g transform="translate(-374,-206) scale(1,1)"><path fill="none" stroke="#000000" d="M 760 336 L 877.03076171875 336 L 877.03076171875 423 L 760 423 L 760 336 Z Z" stroke-miterlimit="10"/></g><g transform="translate(-374,-206) scale(1,1)"><path fill="none" stroke="#000000" d="M 760 361 L 877.03076171875 361" stroke-miterlimit="10"/></g><g transform="translate(-374,-206) scale(1,1)"><path fill="none" stroke="#000000" d="M 760 414 L 877.03076171875 414" stroke-miterlimit="10"/></g><g transform="translate(-374,-206) scale(1,1)"><g><path fill="none" stroke="none"/><text fill="#000000" stroke="none" font-family="Arial" font-size="13px" font-style="normal" font-weight="bold" text-decoration="none" x="802.2685546875" y="353.53857421875">Song</text></g></g><g transform="translate(-374,-206) scale(1,1)"><g><path fill="none" stroke="none"/><text fill="#000000" stroke="none" font-family="Arial" font-size="13px" font-style="normal" font-weight="normal" text-decoration="none" x="765" y="376.7099609375">+name: String</text></g></g><g transform="translate(-374,-206) scale(1,1)"><g><path fill="none" stroke="none"/><text fill="#000000" stroke="none" font-family="Arial" font-size="13px" font-style="normal" font-weight="normal" text-decoration="none" x="765" y="391.7099609375">+duration: Number</text></g></g><g transform="translate(-374,-206) scale(1,1)"><g><path fill="none" stroke="none"/><text fill="#000000" stroke="none" font-family="Arial" font-size="13px" font-style="normal" font-weight="normal" text-decoration="none" x="765" y="406.7099609375">+genres: String[]</text></g></g><g transform="translate(-374,-206) scale(1,1)"><path fill="none" stroke="#000000" d="M 721 560 L 818 560 L 818 423" stroke-miterlimit="10"/></g><g transform="translate(-374,-206) scale(1,1)"><path fill="none" stroke="#000000" d="M 822.209517756016 433.16267485762415 L 818 423 L 813.790482243984 433.16267485762415" stroke-miterlimit="10"/></g><g transform="translate(-374,-206) scale(1,1)"><g><path fill="none" stroke="none"/><text fill="#000000" stroke="none" font-family="Arial" font-size="13px" font-style="normal" font-weight="normal" text-decoration="none" x="768.13134765625" y="450.49755859375">-songs</text></g></g><g transform="translate(-374,-206) scale(1,1)"><g><path fill="none" stroke="none"/><text fill="#000000" stroke="none" font-family="Arial" font-size="13px" font-style="normal" font-weight="normal" text-decoration="none" x="820.5" y="448.53857421875">0..*</text></g></g><g transform="translate(-374,-206) scale(1,1)"><rect fill="#C0C0C0" stroke="none" x="391" y="367" width="139.431640625" height="117" opacity="0.2"/></g><g transform="translate(-374,-206) scale(1,1)"><rect fill="#ffffff" stroke="none" x="384" y="360" width="139.431640625" height="117"/></g><g transform="translate(-374,-206) scale(1,1)"><path fill="none" stroke="#000000" d="M 384 360 L 523.431640625 360 L 523.431640625 477 L 384 477 L 384 360 Z Z" stroke-miterlimit="10"/></g><g transform="translate(-374,-206) scale(1,1)"><path fill="none" stroke="#000000" d="M 384 385 L 523.431640625 385" stroke-miterlimit="10"/></g><g transform="translate(-374,-206) scale(1,1)"><path fill="none" stroke="#000000" d="M 384 468 L 523.431640625 468" stroke-miterlimit="10"/></g><g transform="translate(-374,-206) scale(1,1)"><g><path fill="none" stroke="none"/><text fill="#000000" stroke="none" font-family="Arial" font-size="13px" font-style="normal" font-weight="bold" text-decoration="none" x="436.7421875" y="377.7099609375">Artist</text></g></g><g transform="translate(-374,-206) scale(1,1)"><g><path fill="none" stroke="none"/><text fill="#000000" stroke="none" font-family="Arial" font-size="13px" font-style="normal" font-weight="normal" text-decoration="none" x="389" y="400.7099609375">+name: String</text></g></g><g transform="translate(-374,-206) scale(1,1)"><g><path fill="none" stroke="none"/><text fill="#000000" stroke="none" font-family="Arial" font-size="13px" font-style="normal" font-weight="normal" text-decoration="none" x="389" y="415.53857421875">+cover: Base64</text></g></g><g transform="translate(-374,-206) scale(1,1)"><g><path fill="none" stroke="none"/><text fill="#000000" stroke="none" font-family="Arial" font-size="13px" font-style="normal" font-weight="normal" text-decoration="none" x="389" y="430.7099609375">+description: String</text></g></g><g transform="translate(-374,-206) scale(1,1)"><g><path fill="none" stroke="none"/><text fill="#000000" stroke="none" font-family="Arial" font-size="13px" font-style="normal" font-weight="normal" text-decoration="none" x="389" y="445.7099609375">+origin_country: String</text></g></g><g transform="translate(-374,-206) scale(1,1)"><g><path fill="none" stroke="none"/><text fill="#000000" stroke="none" font-family="Arial" font-size="13px" font-style="normal" font-weight="normal" text-decoration="none" x="389" y="460.7099609375">+genres: Sting[]</text></g></g><g transform="translate(-374,-206) scale(1,1)"><path fill="none" stroke="#000000" d="M 600 536 L 464 536 L 464 477" stroke-miterlimit="10"/></g><g transform="translate(-374,-206) scale(1,1)"><path fill="none" stroke="#000000" d="M 468.209517756016 487.16267485762415 L 464 477 L 459.790482243984 487.16267485762415" stroke-miterlimit="10"/></g><g transform="translate(-374,-206) scale(1,1)"><g><path fill="none" stroke="none"/><text fill="#000000" stroke="none" font-family="Arial" font-size="13px" font-style="normal" font-weight="normal" text-decoration="none" x="416.13134765625" y="497.7099609375">-artist</text></g></g><g transform="translate(-374,-206) scale(1,1)"><g><path fill="none" stroke="none"/><text fill="#000000" stroke="none" font-family="Arial" font-size="13px" font-style="normal" font-weight="normal" text-decoration="none" x="465.5" y="502.53857421875">0..1</text></g></g><g transform="translate(-374,-206) scale(1,1)"><path fill="none" stroke="#000000" d="M 992 424 L 992 616 L 660 616 L 660 582" stroke-miterlimit="10"/></g><g transform="translate(-374,-206) scale(1,1)"><path fill="none" stroke="#000000" d="M 664.209517756016 592.1626748576241 L 660 582 L 655.790482243984 592.1626748576241" stroke-miterlimit="10"/></g><g transform="translate(-374,-206) scale(1,1)"><g><path fill="none" stroke="none"/><text fill="#000000" stroke="none" font-family="Arial" font-size="13px" font-style="normal" font-weight="normal" text-decoration="none" x="607.13134765625" y="609.7099609375">-library</text></g></g><g transform="translate(-374,-206) scale(1,1)"><g><path fill="none" stroke="none"/><text fill="#000000" stroke="none" font-family="Arial" font-size="13px" font-style="normal" font-weight="normal" text-decoration="none" x="662.5" y="607.53857421875">0..*</text></g></g><g transform="translate(-374,-206) scale(1,1)"><rect fill="#C0C0C0" stroke="none" x="599" y="223" width="109.08984375" height="72" opacity="0.2"/></g><g transform="translate(-374,-206) scale(1,1)"><rect fill="#ffffff" stroke="none" x="592" y="216" width="109.08984375" height="72"/></g><g transform="translate(-374,-206) scale(1,1)"><path fill="none" stroke="#000000" d="M 592 216 L 701.08984375 216 L 701.08984375 288 L 592 288 L 592 216 Z Z" stroke-miterlimit="10"/></g><g transform="translate(-374,-206) scale(1,1)"><path fill="none" stroke="#000000" d="M 592 241 L 701.08984375 241" stroke-miterlimit="10"/></g><g transform="translate(-374,-206) scale(1,1)"><path fill="none" stroke="#000000" d="M 592 279 L 701.08984375 279" stroke-miterlimit="10"/></g><g transform="translate(-374,-206) scale(1,1)"><g><path fill="none" stroke="none"/><text fill="#000000" stroke="none" font-family="Arial" font-size="13px" font-style="normal" font-weight="bold" text-decoration="none" x="633.900390625" y="233.53857421875">Star</text></g></g><g transform="translate(-374,-206) scale(1,1)"><g><path fill="none" stroke="none"/><text fill="#000000" stroke="none" font-family="Arial" font-size="13px" font-style="normal" font-weight="normal" text-decoration="none" x="597" y="256.7099609375">+start_date: Date</text></g></g><g transform="translate(-374,-206) scale(1,1)"><g><path fill="none" stroke="none"/><text fill="#000000" stroke="none" font-family="Arial" font-size="13px" font-style="normal" font-weight="normal" text-decoration="none" x="597" y="271.7099609375">+end_date: Date</text></g></g><g transform="translate(-374,-206) scale(1,1)"><path fill="none" stroke="#000000" d="M 701 228 L 992 228 L 992 352" stroke-miterlimit="10"/></g><g transform="translate(-374,-206) scale(1,1)"><path fill="none" stroke="#000000" d="M 987.790482243984 341.83732514237585 L 992 352 L 996.209517756016 341.83732514237585" stroke-miterlimit="10"/></g><g transform="translate(-374,-206) scale(1,1)"><g><path fill="none" stroke="none"/><text fill="#000000" stroke="none" font-family="Arial" font-size="13px" font-style="normal" font-weight="normal" text-decoration="none" x="1008.13134765625" y="337.49755859375">-user</text></g></g><g transform="translate(-374,-206) scale(1,1)"><g><path fill="none" stroke="none"/><text fill="#000000" stroke="none" font-family="Arial" font-size="13px" font-style="normal" font-weight="normal" text-decoration="none" x="975.5" y="334.471923828125">1</text></g></g><g transform="translate(-374,-206) scale(1,1)"><path fill="none" stroke="#000000" d="M 592 228 L 464 228 L 464 360" stroke-miterlimit="10"/></g><g transform="translate(-374,-206) scale(1,1)"><path fill="none" stroke="#000000" d="M 459.790482243984 349.83732514237585 L 464 360 L 468.209517756016 349.83732514237585" stroke-miterlimit="10"/></g><g transform="translate(-374,-206) scale(1,1)"><g><path fill="none" stroke="none"/><text fill="#000000" stroke="none" font-family="Arial" font-size="13px" font-style="normal" font-weight="normal" text-decoration="none" x="475.02587890625" y="345.7099609375">-starredArtists</text></g></g><g transform="translate(-374,-206) scale(1,1)"><g><path fill="none" stroke="none"/><text fill="#000000" stroke="none" font-family="Arial" font-size="13px" font-style="normal" font-weight="normal" text-decoration="none" x="441.5" y="342.53857421875">0..*</text></g></g><g transform="translate(-374,-206) scale(1,1)"><path fill="none" stroke="#000000" d="M 647 288 L 647 480" stroke-miterlimit="10"/></g><g transform="translate(-374,-206) scale(1,1)"><path fill="none" stroke="#000000" d="M 642.790482243984 469.83732514237585 L 647 480 L 651.209517756016 469.83732514237585" stroke-miterlimit="10"/></g><g transform="translate(-374,-206) scale(1,1)"><g><path fill="none" stroke="none"/><text fill="#000000" stroke="none" font-family="Arial" font-size="13px" font-style="normal" font-weight="normal" text-decoration="none" x="656.13134765625" y="473.7099609375">-starredAlbumsPlaylists</text></g></g><g transform="translate(-374,-206) scale(1,1)"><g><path fill="none" stroke="none"/><text fill="#000000" stroke="none" font-family="Arial" font-size="13px" font-style="normal" font-weight="normal" text-decoration="none" x="624.5" y="462.53857421875">0..*</text></g></g><g transform="translate(-374,-206) scale(1,1)"><path fill="none" stroke="#000000" d="M 701 228 L 816 228 L 816 336" stroke-miterlimit="10"/></g><g transform="translate(-374,-206) scale(1,1)"><path fill="none" stroke="#000000" d="M 811.790482243984 325.83732514237585 L 816 336 L 820.209517756016 325.83732514237585" stroke-miterlimit="10"/></g><g transform="translate(-374,-206) scale(1,1)"><g><path fill="none" stroke="none"/><text fill="#000000" stroke="none" font-family="Arial" font-size="13px" font-style="normal" font-weight="normal" text-decoration="none" x="823.13134765625" y="321.7099609375">-starredSongs</text></g></g><g transform="translate(-374,-206) scale(1,1)"><g><path fill="none" stroke="none"/><text fill="#000000" stroke="none" font-family="Arial" font-size="13px" font-style="normal" font-weight="normal" text-decoration="none" x="793.5" y="318.53857421875">0..*</text></g></g></g></svg>